<svg width="294" height="88" viewBox="0 0 294 88" fill="none" xmlns="http://www.w3.org/2000/svg">
<rect width="294" height="88" fill="#3C514D"/>
<path d="M98.81 23.75V21.878H102.554V35H100.484V23.75H98.81ZM106.561 32.264V30.716L112.609 22.04H115.093V30.482H116.767V32.264H115.093V35H113.077V32.264H106.561ZM113.167 24.128L108.919 30.482H113.167V24.128ZM130.379 22.49C131.711 22.49 132.875 22.748 133.871 23.264C134.879 23.768 135.653 24.5 136.193 25.46C136.745 26.408 137.021 27.518 137.021 28.79C137.021 30.062 136.745 31.166 136.193 32.102C135.653 33.038 134.879 33.758 133.871 34.262C132.875 34.754 131.711 35 130.379 35H126.293V22.49H130.379ZM130.379 33.326C131.843 33.326 132.965 32.93 133.745 32.138C134.525 31.346 134.915 30.23 134.915 28.79C134.915 27.338 134.525 26.204 133.745 25.388C132.965 24.572 131.843 24.164 130.379 24.164H128.345V33.326H130.379ZM148.037 32.444H142.799L141.899 35H139.757L144.239 22.472H146.615L151.097 35H148.937L148.037 32.444ZM147.461 30.77L145.427 24.956L143.375 30.77H147.461ZM163.756 22.49L159.616 30.464V35H157.564V30.464L153.406 22.49H155.692L158.59 28.628L161.488 22.49H163.756ZM170.946 35.126C170.106 35.126 169.35 34.982 168.678 34.694C168.006 34.394 167.478 33.974 167.094 33.434C166.71 32.894 166.518 32.264 166.518 31.544H168.714C168.762 32.084 168.972 32.528 169.344 32.876C169.728 33.224 170.262 33.398 170.946 33.398C171.654 33.398 172.206 33.23 172.602 32.894C172.998 32.546 173.196 32.102 173.196 31.562C173.196 31.142 173.07 30.8 172.818 30.536C172.578 30.272 172.272 30.068 171.9 29.924C171.54 29.78 171.036 29.624 170.388 29.456C169.572 29.24 168.906 29.024 168.39 28.808C167.886 28.58 167.454 28.232 167.094 27.764C166.734 27.296 166.554 26.672 166.554 25.892C166.554 25.172 166.734 24.542 167.094 24.002C167.454 23.462 167.958 23.048 168.606 22.76C169.254 22.472 170.004 22.328 170.856 22.328C172.068 22.328 173.058 22.634 173.826 23.246C174.606 23.846 175.038 24.674 175.122 25.73H172.854C172.818 25.274 172.602 24.884 172.206 24.56C171.81 24.236 171.288 24.074 170.64 24.074C170.052 24.074 169.572 24.224 169.2 24.524C168.828 24.824 168.642 25.256 168.642 25.82C168.642 26.204 168.756 26.522 168.984 26.774C169.224 27.014 169.524 27.206 169.884 27.35C170.244 27.494 170.736 27.65 171.36 27.818C172.188 28.046 172.86 28.274 173.376 28.502C173.904 28.73 174.348 29.084 174.708 29.564C175.08 30.032 175.266 30.662 175.266 31.454C175.266 32.09 175.092 32.69 174.744 33.254C174.408 33.818 173.91 34.274 173.25 34.622C172.602 34.958 171.834 35.126 170.946 35.126ZM191.741 35L188.861 29.996H187.295V35H185.243V22.49H189.563C190.523 22.49 191.333 22.658 191.993 22.994C192.665 23.33 193.163 23.78 193.487 24.344C193.823 24.908 193.991 25.538 193.991 26.234C193.991 27.05 193.751 27.794 193.271 28.466C192.803 29.126 192.077 29.576 191.093 29.816L194.189 35H191.741ZM187.295 28.358H189.563C190.331 28.358 190.907 28.166 191.291 27.782C191.687 27.398 191.885 26.882 191.885 26.234C191.885 25.586 191.693 25.082 191.309 24.722C190.925 24.35 190.343 24.164 189.563 24.164H187.295V28.358ZM200.108 24.146V27.818H204.428V29.492H200.108V33.326H204.968V35H198.056V22.472H204.968V24.146H200.108ZM217.018 22.49V24.164H213.688V35H211.636V24.164H208.288V22.49H217.018ZM222.57 22.49V30.464C222.57 31.412 222.816 32.126 223.308 32.606C223.812 33.086 224.508 33.326 225.396 33.326C226.296 33.326 226.992 33.086 227.484 32.606C227.988 32.126 228.24 31.412 228.24 30.464V22.49H230.292V30.428C230.292 31.448 230.07 32.312 229.626 33.02C229.182 33.728 228.588 34.256 227.844 34.604C227.1 34.952 226.278 35.126 225.378 35.126C224.478 35.126 223.656 34.952 222.912 34.604C222.18 34.256 221.598 33.728 221.166 33.02C220.734 32.312 220.518 31.448 220.518 30.428V22.49H222.57ZM240.901 35L238.021 29.996H236.455V35H234.403V22.49H238.723C239.683 22.49 240.493 22.658 241.153 22.994C241.825 23.33 242.323 23.78 242.647 24.344C242.983 24.908 243.151 25.538 243.151 26.234C243.151 27.05 242.911 27.794 242.431 28.466C241.963 29.126 241.237 29.576 240.253 29.816L243.349 35H240.901ZM236.455 28.358H238.723C239.491 28.358 240.067 28.166 240.451 27.782C240.847 27.398 241.045 26.882 241.045 26.234C241.045 25.586 240.853 25.082 240.469 24.722C240.085 24.35 239.503 24.164 238.723 24.164H236.455V28.358ZM257.494 35H255.442L249.268 25.658V35H247.216V22.472H249.268L255.442 31.796V22.472H257.494V35Z" fill="white"/>
<path d="M106.406 53.902C105.746 53.038 104.882 52.606 103.814 52.606C102.746 52.606 101.924 53.05 101.348 53.938C100.772 54.814 100.484 55.936 100.484 57.304C100.484 57.424 100.484 57.538 100.484 57.646C100.508 59.362 100.832 60.622 101.456 61.426C102.092 62.23 102.95 62.632 104.03 62.632C105.122 62.632 105.956 62.206 106.532 61.354C107.108 60.502 107.396 59.35 107.396 57.898C107.396 56.098 107.066 54.766 106.406 53.902ZM108.89 57.646C108.89 59.326 108.44 60.7 107.54 61.768C106.64 62.824 105.434 63.352 103.922 63.352C102.422 63.352 101.228 62.824 100.34 61.768C99.452 60.712 99.008 59.338 99.008 57.646C99.008 55.954 99.452 54.574 100.34 53.506C101.228 52.426 102.422 51.886 103.922 51.886C105.422 51.886 106.622 52.426 107.522 53.506C108.434 54.574 108.89 55.954 108.89 57.646ZM118.145 57.394V62.308C118.529 62.452 118.949 62.542 119.405 62.578C119.405 62.746 119.393 62.926 119.369 63.118H115.697C115.685 62.974 115.691 62.794 115.715 62.578C116.147 62.53 116.441 62.446 116.597 62.326C116.765 62.206 116.849 61.996 116.849 61.696V57.502C116.849 56.914 116.711 56.464 116.435 56.152C116.159 55.84 115.775 55.684 115.283 55.684C114.239 55.684 113.459 56.308 112.943 57.556V62.308C113.279 62.452 113.687 62.542 114.167 62.578C114.167 62.794 114.149 62.974 114.113 63.118H110.423C110.399 62.938 110.411 62.758 110.459 62.578C110.903 62.53 111.209 62.446 111.377 62.326C111.557 62.206 111.647 61.996 111.647 61.696V55.972C111.299 55.96 111.029 55.954 110.837 55.954C110.645 55.954 110.495 55.954 110.387 55.954C110.387 55.81 110.411 55.654 110.459 55.486C111.251 55.174 112.031 54.952 112.799 54.82C112.871 55.276 112.919 55.864 112.943 56.584C113.555 55.336 114.485 54.712 115.733 54.712C116.441 54.712 117.017 54.94 117.461 55.396C117.917 55.852 118.145 56.518 118.145 57.394ZM127.266 59.302C127.662 59.722 128.142 59.932 128.706 59.932C129.27 59.932 129.714 59.74 130.038 59.356C130.374 58.972 130.542 58.468 130.542 57.844C130.542 56.98 130.344 56.332 129.948 55.9C129.564 55.468 129.09 55.252 128.526 55.252C127.974 55.252 127.53 55.45 127.194 55.846C126.858 56.242 126.69 56.776 126.69 57.448C126.69 58.264 126.882 58.882 127.266 59.302ZM126.618 63.154C126.054 63.562 125.772 64.048 125.772 64.612C125.772 65.176 126.012 65.614 126.492 65.926C126.984 66.238 127.698 66.394 128.634 66.394C129.57 66.394 130.374 66.154 131.046 65.674C131.718 65.206 132.048 64.702 132.036 64.162C132.036 63.514 131.676 63.19 130.956 63.19L127.284 63.208C127.032 63.208 126.81 63.19 126.618 63.154ZM131.046 62.11C131.718 62.11 132.234 62.26 132.594 62.56C132.966 62.86 133.152 63.268 133.152 63.784C133.14 64.672 132.642 65.494 131.658 66.25C130.674 67.006 129.534 67.384 128.238 67.384C127.23 67.384 126.42 67.162 125.808 66.718C125.208 66.286 124.908 65.674 124.908 64.882C124.908 64.102 125.31 63.472 126.114 62.992C125.55 62.716 125.268 62.242 125.268 61.57C125.268 60.898 125.724 60.358 126.636 59.95C125.748 59.422 125.304 58.636 125.304 57.592C125.304 56.716 125.622 56.02 126.258 55.504C126.894 54.976 127.656 54.712 128.544 54.712C129.432 54.712 130.164 54.916 130.74 55.324C131.448 54.82 132.288 54.568 133.26 54.568C133.272 54.616 133.278 54.706 133.278 54.838C133.278 54.958 133.248 55.186 133.188 55.522L131.226 55.738C131.682 56.23 131.91 56.884 131.91 57.7C131.91 58.504 131.598 59.17 130.974 59.698C130.35 60.214 129.564 60.472 128.616 60.472C128.112 60.472 127.626 60.388 127.158 60.22C126.57 60.496 126.276 60.844 126.276 61.264C126.276 61.516 126.372 61.726 126.564 61.894C126.768 62.062 127.074 62.146 127.482 62.146L130.974 62.11C130.998 62.11 131.022 62.11 131.046 62.11ZM136.157 61.624C136.601 62.26 137.225 62.578 138.029 62.578C138.833 62.578 139.421 62.278 139.793 61.678C140.177 61.066 140.369 60.25 140.369 59.23C140.369 58.006 140.153 57.064 139.721 56.404C139.289 55.732 138.671 55.396 137.867 55.396C137.075 55.396 136.481 55.714 136.085 56.35C135.701 56.974 135.509 57.808 135.509 58.852C135.509 60.052 135.725 60.976 136.157 61.624ZM137.975 54.712C139.127 54.712 140.045 55.108 140.729 55.9C141.425 56.68 141.773 57.718 141.773 59.014C141.773 60.31 141.419 61.354 140.711 62.146C140.003 62.938 139.061 63.334 137.885 63.334C136.721 63.334 135.803 62.944 135.131 62.164C134.459 61.372 134.123 60.328 134.123 59.032C134.123 57.736 134.477 56.692 135.185 55.9C135.893 55.108 136.823 54.712 137.975 54.712ZM145.315 61.624C145.759 62.26 146.383 62.578 147.187 62.578C147.991 62.578 148.579 62.278 148.951 61.678C149.335 61.066 149.527 60.25 149.527 59.23C149.527 58.006 149.311 57.064 148.879 56.404C148.447 55.732 147.829 55.396 147.025 55.396C146.233 55.396 145.639 55.714 145.243 56.35C144.859 56.974 144.667 57.808 144.667 58.852C144.667 60.052 144.883 60.976 145.315 61.624ZM147.133 54.712C148.285 54.712 149.203 55.108 149.887 55.9C150.583 56.68 150.931 57.718 150.931 59.014C150.931 60.31 150.577 61.354 149.869 62.146C149.161 62.938 148.219 63.334 147.043 63.334C145.879 63.334 144.961 62.944 144.289 62.164C143.617 61.372 143.281 60.328 143.281 59.032C143.281 57.736 143.635 56.692 144.343 55.9C145.051 55.108 145.981 54.712 147.133 54.712ZM156.832 55.576C154.828 55.576 153.826 56.704 153.826 58.96C153.826 60.136 154.036 61.006 154.456 61.57C154.888 62.122 155.476 62.398 156.22 62.398C156.964 62.398 157.576 62.182 158.056 61.75V55.702C157.708 55.618 157.3 55.576 156.832 55.576ZM159.334 63.334C159.046 63.334 158.788 63.25 158.56 63.082C158.344 62.914 158.194 62.686 158.11 62.398C157.486 63.022 156.712 63.334 155.788 63.334C154.876 63.334 154.096 62.974 153.448 62.254C152.8 61.534 152.476 60.496 152.476 59.14C152.476 57.772 152.932 56.692 153.844 55.9C154.768 55.108 155.902 54.712 157.246 54.712C157.522 54.712 157.792 54.73 158.056 54.766V51.418C157.936 51.406 157.768 51.4 157.552 51.4C157.336 51.4 157.084 51.406 156.796 51.418C156.796 51.214 156.82 51.046 156.868 50.914C157.696 50.59 158.524 50.368 159.352 50.248V61.426C159.352 61.786 159.394 62.038 159.478 62.182C159.562 62.326 159.688 62.398 159.856 62.398C160.036 62.398 160.276 62.368 160.576 62.308L160.702 62.524C160.27 63.064 159.814 63.334 159.334 63.334ZM164.809 62.65C165.409 62.65 165.883 62.524 166.231 62.272C166.579 62.008 166.753 61.69 166.753 61.318C166.753 60.946 166.609 60.634 166.321 60.382C166.033 60.13 165.679 59.908 165.259 59.716C164.839 59.524 164.419 59.326 163.999 59.122C163.591 58.906 163.243 58.624 162.955 58.276C162.667 57.916 162.523 57.496 162.523 57.016C162.523 56.26 162.793 55.69 163.333 55.306C163.873 54.91 164.521 54.712 165.277 54.712C166.045 54.712 166.777 54.832 167.473 55.072C167.485 55.276 167.491 55.552 167.491 55.9C167.491 56.248 167.455 56.65 167.383 57.106C167.287 57.106 167.149 57.088 166.969 57.052C166.981 56.932 166.987 56.818 166.987 56.71C166.987 55.81 166.441 55.36 165.349 55.36C164.869 55.36 164.473 55.492 164.161 55.756C163.861 56.008 163.711 56.326 163.711 56.71C163.711 57.082 163.855 57.4 164.143 57.664C164.443 57.928 164.803 58.15 165.223 58.33C165.655 58.51 166.081 58.702 166.501 58.906C166.933 59.11 167.293 59.386 167.581 59.734C167.881 60.07 168.031 60.466 168.031 60.922C168.031 61.678 167.719 62.272 167.095 62.704C166.483 63.124 165.727 63.334 164.827 63.334C163.927 63.334 163.087 63.208 162.307 62.956C162.283 62.68 162.271 62.362 162.271 62.002C162.271 61.63 162.307 61.222 162.379 60.778C162.487 60.778 162.625 60.79 162.793 60.814C162.793 60.886 162.793 60.958 162.793 61.03C162.793 61.594 162.979 62.008 163.351 62.272C163.735 62.524 164.221 62.65 164.809 62.65ZM177.859 62.524C178.627 62.524 179.281 62.212 179.821 61.588C180.361 60.952 180.631 60.058 180.631 58.906C180.631 57.742 180.421 56.896 180.001 56.368C179.593 55.84 179.125 55.576 178.597 55.576C178.069 55.576 177.613 55.738 177.229 56.062C176.845 56.386 176.569 56.86 176.401 57.484V62.236C176.857 62.428 177.343 62.524 177.859 62.524ZM175.069 65.728V55.972C174.721 55.96 174.451 55.954 174.259 55.954C174.067 55.954 173.923 55.954 173.827 55.954C173.851 55.726 173.881 55.57 173.917 55.486C174.697 55.174 175.459 54.952 176.203 54.82C176.299 55.252 176.359 55.762 176.383 56.35C176.815 55.258 177.595 54.712 178.723 54.712C179.623 54.712 180.403 55.072 181.063 55.792C181.735 56.512 182.071 57.55 182.071 58.906C182.071 60.262 181.633 61.342 180.757 62.146C179.893 62.938 178.867 63.334 177.679 63.334C177.247 63.334 176.821 63.262 176.401 63.118V66.214C176.881 66.43 177.445 66.568 178.093 66.628C178.093 66.892 178.081 67.072 178.057 67.168H173.845C173.821 66.964 173.839 66.784 173.899 66.628C174.343 66.568 174.649 66.478 174.817 66.358C174.985 66.238 175.069 66.028 175.069 65.728ZM185.028 60.976C185.028 61.42 185.154 61.768 185.406 62.02C185.67 62.26 186.018 62.38 186.45 62.38C187.11 62.38 187.662 62.14 188.106 61.66V58.726L186.828 59.05C185.628 59.374 185.028 60.016 185.028 60.976ZM189.402 63.334C189.09 63.334 188.82 63.25 188.592 63.082C188.364 62.902 188.214 62.656 188.142 62.344C187.542 63.004 186.864 63.334 186.108 63.334C185.364 63.334 184.77 63.124 184.326 62.704C183.882 62.272 183.66 61.72 183.66 61.048C183.66 59.728 184.572 58.87 186.396 58.474L188.106 58.096V57.304C188.106 56.764 187.992 56.368 187.764 56.116C187.548 55.864 187.134 55.738 186.522 55.738C185.91 55.738 185.19 55.882 184.362 56.17L184.128 55.81C185.016 55.078 186.012 54.712 187.116 54.712C187.848 54.712 188.412 54.928 188.808 55.36C189.216 55.792 189.42 56.392 189.42 57.16V61.426C189.42 61.786 189.462 62.038 189.546 62.182C189.63 62.326 189.762 62.398 189.942 62.398C190.134 62.398 190.368 62.368 190.644 62.308L190.752 62.524C190.344 63.064 189.894 63.334 189.402 63.334ZM194.295 52.912C194.115 53.104 193.893 53.2 193.629 53.2C193.365 53.2 193.137 53.104 192.945 52.912C192.753 52.72 192.657 52.492 192.657 52.228C192.657 51.964 192.753 51.736 192.945 51.544C193.137 51.352 193.365 51.256 193.629 51.256C193.893 51.256 194.115 51.352 194.295 51.544C194.487 51.724 194.583 51.952 194.583 52.228C194.583 52.492 194.487 52.72 194.295 52.912ZM192.999 61.696V55.99C192.807 55.978 192.603 55.972 192.387 55.972C192.183 55.972 191.967 55.978 191.739 55.99C191.739 55.87 191.763 55.702 191.811 55.486C192.651 55.174 193.479 54.952 194.295 54.82V62.308C194.631 62.452 195.039 62.542 195.519 62.578C195.519 62.794 195.501 62.974 195.465 63.118H191.775C191.751 62.938 191.763 62.758 191.811 62.578C192.255 62.53 192.561 62.446 192.729 62.326C192.909 62.206 192.999 61.996 192.999 61.696ZM201.357 55.576C199.353 55.576 198.351 56.704 198.351 58.96C198.351 60.136 198.561 61.006 198.981 61.57C199.413 62.122 200.001 62.398 200.745 62.398C201.489 62.398 202.101 62.182 202.581 61.75V55.702C202.233 55.618 201.825 55.576 201.357 55.576ZM203.859 63.334C203.571 63.334 203.313 63.25 203.085 63.082C202.869 62.914 202.719 62.686 202.635 62.398C202.011 63.022 201.237 63.334 200.313 63.334C199.401 63.334 198.621 62.974 197.973 62.254C197.325 61.534 197.001 60.496 197.001 59.14C197.001 57.772 197.457 56.692 198.369 55.9C199.293 55.108 200.427 54.712 201.771 54.712C202.047 54.712 202.317 54.73 202.581 54.766V51.418C202.461 51.406 202.293 51.4 202.077 51.4C201.861 51.4 201.609 51.406 201.321 51.418C201.321 51.214 201.345 51.046 201.393 50.914C202.221 50.59 203.049 50.368 203.877 50.248V61.426C203.877 61.786 203.919 62.038 204.003 62.182C204.087 62.326 204.213 62.398 204.381 62.398C204.561 62.398 204.801 62.368 205.101 62.308L205.227 62.524C204.795 63.064 204.339 63.334 203.859 63.334ZM212.052 53.83C212.052 52.666 212.328 51.796 212.88 51.22C213.432 50.632 214.074 50.338 214.806 50.338C215.55 50.338 216.192 50.608 216.732 51.148C216.72 51.664 216.648 52.204 216.516 52.768C216.42 52.768 216.246 52.75 215.994 52.714C215.994 52.654 215.994 52.594 215.994 52.534C215.994 51.574 215.61 51.094 214.842 51.094C213.846 51.094 213.348 51.784 213.348 53.164V55.036C214.056 55.036 214.902 54.994 215.886 54.91C215.886 55.258 215.844 55.54 215.76 55.756H213.348V62.2C213.912 62.416 214.536 62.542 215.22 62.578C215.244 62.77 215.232 62.95 215.184 63.118H210.81C210.798 63.058 210.792 62.98 210.792 62.884C210.792 62.788 210.816 62.686 210.864 62.578C211.308 62.518 211.614 62.428 211.782 62.308C211.962 62.188 212.052 61.978 212.052 61.678V55.774C211.716 55.726 211.326 55.702 210.882 55.702C210.882 55.57 210.894 55.444 210.918 55.324C211.338 55.18 211.716 55.084 212.052 55.036V53.83ZM218.546 61.624C218.99 62.26 219.614 62.578 220.418 62.578C221.222 62.578 221.81 62.278 222.182 61.678C222.566 61.066 222.758 60.25 222.758 59.23C222.758 58.006 222.542 57.064 222.11 56.404C221.678 55.732 221.06 55.396 220.256 55.396C219.464 55.396 218.87 55.714 218.474 56.35C218.09 56.974 217.898 57.808 217.898 58.852C217.898 60.052 218.114 60.976 218.546 61.624ZM220.364 54.712C221.516 54.712 222.434 55.108 223.118 55.9C223.814 56.68 224.162 57.718 224.162 59.014C224.162 60.31 223.808 61.354 223.1 62.146C222.392 62.938 221.45 63.334 220.274 63.334C219.11 63.334 218.192 62.944 217.52 62.164C216.848 61.372 216.512 60.328 216.512 59.032C216.512 57.736 216.866 56.692 217.574 55.9C218.282 55.108 219.212 54.712 220.364 54.712ZM227.992 57.07V57.196C228.28 56.452 228.712 55.852 229.288 55.396C229.864 54.94 230.482 54.712 231.142 54.712C231.202 54.856 231.232 55.036 231.232 55.252C231.232 55.456 231.19 55.702 231.106 55.99C230.11 55.99 229.294 56.32 228.658 56.98C228.298 57.376 228.076 57.868 227.992 58.456V62.2C228.532 62.416 229.162 62.542 229.882 62.578C229.882 62.806 229.858 62.986 229.81 63.118H225.472C225.46 62.974 225.466 62.794 225.49 62.578C225.946 62.518 226.258 62.428 226.426 62.308C226.606 62.188 226.696 61.978 226.696 61.678V55.972C226.348 55.96 226.078 55.954 225.886 55.954C225.694 55.954 225.544 55.954 225.436 55.954C225.436 55.81 225.46 55.654 225.508 55.486C226.3 55.174 227.08 54.952 227.848 54.82C227.944 55.432 227.992 56.182 227.992 57.07Z" fill="white"/>
<path d="M55 64C66.0457 64 75 55.0457 75 44C75 32.9543 66.0457 24 55 24C43.9543 24 35 32.9543 35 44C35 55.0457 43.9543 64 55 64Z" stroke="white" stroke-width="3" stroke-linecap="round" stroke-linejoin="round"/>
<path d="M55 32V44L63 48" stroke="white" stroke-width="3" stroke-linecap="round" stroke-linejoin="round"/>
</svg>
