<svg width="80" height="76" viewBox="0 0 80 76" fill="none" xmlns="http://www.w3.org/2000/svg">
<path d="M23.4882 52.7401L23.4863 52.7308L23.4843 52.7215C22.7585 49.4194 22.0325 46.1168 21.3064 42.814C19.0789 32.681 16.8509 22.546 14.6268 12.419C13.9863 9.23967 11.2412 6.9998 7.9998 6.9998H3.9999C2.34312 6.9998 1 5.65668 1 3.9999C1 2.34312 2.34312 1 3.9999 1H7.9998C14.0028 1 19.198 6.13272 20.7015 12.1108L20.8917 12.8669H21.6713H75.9975C78.1267 12.8681 79.577 15.025 78.775 16.9973C78.7749 16.9975 78.7749 16.9976 78.7748 16.9977L67.3062 45.1529L67.3061 45.1531C66.8463 46.2827 65.7484 47.0216 64.5287 47.0222H29.6161H28.3727L28.6394 48.2367C28.6578 48.3207 28.6762 48.4048 28.6946 48.4888C29.1541 50.5861 29.6113 52.6728 30.5699 54.2216C31.0884 55.0592 31.7684 55.7714 32.6915 56.2657C33.6096 56.7573 34.7033 56.9986 35.9991 56.9986H63.9984C65.6552 56.9986 66.9983 58.3417 66.9983 59.9985C66.9983 61.6553 65.6552 62.9984 63.9984 62.9984H35.9991C29.9422 62.9984 24.6757 58.6796 23.4882 52.7401ZM23.4291 18.8667H22.1855L22.4524 20.0813L26.882 40.2371L27.0546 41.0224H27.8587H61.8344H62.5065L62.7603 40.4L70.9789 20.2443L71.5406 18.8667H70.0529H23.4291Z" fill="#2A70D6" stroke="white" stroke-width="2"/>
<path d="M35.531 71.9982C35.531 72.7938 35.215 73.5568 34.6524 74.1194C34.0898 74.682 33.3267 74.9981 32.5311 74.9981C31.7356 74.9981 30.9725 74.682 30.4099 74.1194C29.8473 73.5568 29.5312 72.7938 29.5312 71.9982C29.5312 71.2026 29.8473 70.4395 30.4099 69.8769C30.9725 69.3143 31.7355 68.9983 32.5311 68.9983C33.3268 68.9983 34.0898 69.3143 34.6524 69.8769C35.215 70.4395 35.531 71.2026 35.531 71.9982Z" fill="#2A70D6" stroke="white" stroke-width="2"/>
<path d="M59.5291 71.9982C59.5291 72.7938 59.213 73.5568 58.6504 74.1194C58.0878 74.682 57.3248 74.9981 56.5292 74.9981C55.7336 74.9981 54.9706 74.682 54.4079 74.1194C53.8453 73.5568 53.5293 72.7938 53.5293 71.9982C53.5293 71.2026 53.8454 70.4395 54.4079 69.8769C54.9705 69.3143 55.7335 68.9983 56.5292 68.9983C57.3249 68.9983 58.0879 69.3143 58.6504 69.8769C59.213 70.4395 59.5291 71.2025 59.5291 71.9982Z" fill="#2A70D6" stroke="white" stroke-width="2"/>
</svg>
