<svg width="124" height="48" viewBox="0 0 124 48" fill="none" xmlns="http://www.w3.org/2000/svg">
<path d="M99.6721 16L100 25.6814H99.3771C98.4153 22.2614 97.5628 19.9343 96.8197 18.7C96.0765 17.44 95.0055 16.81 93.6066 16.81H93.2131V44H96V45H84.0328V44H86.8197V16.81H86.3934C84.9945 16.81 83.9126 17.4657 83.1475 18.7771C82.3825 20.0629 81.541 22.3643 80.623 25.6814H80L80.082 23.2611C80.082 23.2611 80.1319 21.7859 80.1639 20.8407C80.228 18.9503 80.3279 16 80.3279 16H99.6721Z" fill="white"/>
<path d="M71.7446 42.648C72.8112 42.648 73.7499 42.36 74.5606 41.784C75.3926 41.208 75.8086 40.344 75.8086 39.192C75.8086 38.0187 75.3606 37.1227 74.4646 36.504C73.5899 35.8854 72.3312 35.352 70.6886 34.904C69.0672 34.4347 67.8832 34.0294 67.1366 33.688C66.4112 33.3467 65.7179 32.8987 65.0566 32.344C63.7339 31.2347 63.0726 29.5174 63.0726 27.192C63.0726 25.2934 63.7446 23.6614 65.0886 22.296C66.4539 20.9307 68.3099 20.248 70.6566 20.248C71.7872 20.248 72.9606 20.4187 74.1766 20.76C75.4139 21.08 76.1819 21.24 76.4806 21.24C76.7792 21.24 77.0459 21.0267 77.2806 20.6H77.6326L77.8566 27.064H77.3446C76.3206 25.208 75.2432 23.7254 74.1126 22.616C73.0032 21.4854 71.7872 20.92 70.4646 20.92C69.1632 20.92 68.1499 21.2294 67.4246 21.848C66.6992 22.4454 66.3366 23.256 66.3366 24.28C66.3366 25.2827 66.7632 26.0614 67.6166 26.616C68.4912 27.1494 69.5579 27.5867 70.8166 27.928C72.0752 28.2694 72.8966 28.504 73.2806 28.632C73.6859 28.76 74.1766 28.9414 74.7526 29.176C75.3499 29.3894 75.8299 29.624 76.1926 29.88C76.5766 30.1147 76.9712 30.424 77.3766 30.808C77.8032 31.1707 78.1339 31.576 78.3686 32.024C78.9446 33.048 79.2326 34.264 79.2326 35.672C79.2326 37.976 78.5072 39.832 77.0566 41.24C75.6272 42.6267 73.7392 43.32 71.3926 43.32C70.1766 43.32 68.7792 43.16 67.2006 42.84C65.6432 42.52 64.7792 42.36 64.6086 42.36C64.3099 42.36 64.0219 42.68 63.7446 43.32H63.2966L62.9766 35.704H63.5206C64.4592 37.56 65.6539 39.1814 67.1046 40.568C68.5766 41.9547 70.1232 42.648 71.7446 42.648Z" fill="white"/>
<path d="M42.3594 20.6001H58.9994L59.3194 26.9361H58.7434C57.8474 24.7814 56.9087 23.3094 55.9274 22.5201C54.946 21.7094 53.506 21.3041 51.6074 21.3041H50.4874V31.1921H51.5754C52.578 31.1921 53.4207 30.8188 54.1034 30.0721C54.786 29.3041 55.266 28.2801 55.5434 27.0001H56.0234V36.4721H55.4794C55.0954 34.8721 54.5727 33.7308 53.9114 33.0481C53.2714 32.3654 52.386 32.0241 51.2554 32.0241H50.4874V42.0001H51.5C53.4627 42.0001 55.33 41.7094 56.6954 40.5361C58.082 39.3628 59.0314 37.8588 59.5434 36.0241H60.1834L59.9274 43.0001H42.3594V42.0001H44.2474V21.3041H42.3594V20.6001Z" fill="white"/>
<path d="M33 42.0002L30.9562 35.4802H24.6202L22.5 42.0002H24.5562V43.0002H19.6602V42.0002H21.5L29.3242 20.4082H31.9482L40 42.0002H41.4842V43.0002H31V42.0002H33ZM27.9162 26.3922L24.9082 34.7762H30.7002L27.9162 26.3922Z" fill="white"/>
<path d="M18 20V43H13.4008L2.42478 21.6413V42H4.18478V43L0 43V42H1.56078V20L0 20V19H8L17.0168 36.664V20H15.2568V19H19.6408V20L18 20Z" fill="white"/>
<path d="M96 44.5H101H123" stroke="white"/>
<path d="M0 44.5L85 44.5" stroke="white"/>
<rect x="88.5" y="40.5" width="3" height="3" fill="white" stroke="#2E7A62"/>
<path d="M99.9713 39.12C99.9713 39.4733 99.888 39.8067 99.7213 40.12C99.5547 40.4333 99.288 40.69 98.9213 40.89C98.5547 41.0833 98.0847 41.18 97.5113 41.18H96.2513V44H95.1113V37.05H97.5113C98.0447 37.05 98.4947 37.1433 98.8613 37.33C99.2347 37.51 99.5113 37.7567 99.6913 38.07C99.878 38.3833 99.9713 38.7333 99.9713 39.12ZM97.5113 40.25C97.9447 40.25 98.268 40.1533 98.4813 39.96C98.6947 39.76 98.8013 39.48 98.8013 39.12C98.8013 38.36 98.3713 37.98 97.5113 37.98H96.2513V40.25H97.5113ZM104.229 44.07C103.582 44.07 102.985 43.92 102.439 43.62C101.899 43.3133 101.469 42.89 101.149 42.35C100.835 41.8033 100.679 41.19 100.679 40.51C100.679 39.83 100.835 39.22 101.149 38.68C101.469 38.14 101.899 37.72 102.439 37.42C102.985 37.1133 103.582 36.96 104.229 36.96C104.882 36.96 105.479 37.1133 106.019 37.42C106.565 37.72 106.995 38.14 107.309 38.68C107.622 39.22 107.779 39.83 107.779 40.51C107.779 41.19 107.622 41.8033 107.309 42.35C106.995 42.89 106.565 43.3133 106.019 43.62C105.479 43.92 104.882 44.07 104.229 44.07ZM104.229 43.08C104.689 43.08 105.099 42.9767 105.459 42.77C105.819 42.5567 106.099 42.2567 106.299 41.87C106.505 41.4767 106.609 41.0233 106.609 40.51C106.609 39.9967 106.505 39.5467 106.299 39.16C106.099 38.7733 105.819 38.4767 105.459 38.27C105.099 38.0633 104.689 37.96 104.229 37.96C103.769 37.96 103.359 38.0633 102.999 38.27C102.639 38.4767 102.355 38.7733 102.149 39.16C101.949 39.5467 101.849 39.9967 101.849 40.51C101.849 41.0233 101.949 41.4767 102.149 41.87C102.355 42.2567 102.639 42.5567 102.999 42.77C103.359 42.9767 103.769 43.08 104.229 43.08ZM110.04 37.05V44H108.9V37.05H110.04ZM117.247 44H116.107L112.677 38.81V44H111.537V37.04H112.677L116.107 42.22V37.04H117.247V44ZM123.234 37.05V37.98H121.384V44H120.244V37.98H118.384V37.05H123.234Z" fill="white"/>
<path d="M80.6822 16L77.5 9L84 13L90 5.5L96 13L102.5 9L99.3822 16H80.6822Z" stroke="white"/>
<path d="M80.6822 16L77.5 9L84 13L90 5.5L96 13L102.5 9L99.3822 16H80.6822Z" stroke="white"/>
<path d="M80.6822 16L77.5 9L84 13L90 5.5L96 13L102.5 9L99.3822 16H80.6822Z" stroke="white"/>
<circle cx="90" cy="3" r="2.5" fill="white"/>
<circle cx="90" cy="3" r="2.5" stroke="white"/>
<circle cx="90" cy="3" r="2.5" stroke="white"/>
<circle cx="90" cy="3" r="2.5" stroke="white"/>
<circle cx="103" cy="8" r="1.5" fill="white"/>
<circle cx="103" cy="8" r="1.5" stroke="white"/>
<circle cx="103" cy="8" r="1.5" stroke="white"/>
<circle cx="103" cy="8" r="1.5" stroke="white"/>
<circle cx="77" cy="8" r="1.5" fill="white"/>
<circle cx="77" cy="8" r="1.5" stroke="white"/>
<circle cx="77" cy="8" r="1.5" stroke="white"/>
<circle cx="77" cy="8" r="1.5" stroke="white"/>
</svg>
