<svg width="21" height="21" viewBox="0 0 21 21" fill="none" xmlns="http://www.w3.org/2000/svg">
<path d="M16.75 16H6.04375L3.42813 1.61875C3.39752 1.44653 3.30768 1.29042 3.17415 1.17743C3.04062 1.06444 2.87179 1.00168 2.69687 1H1" stroke="black" stroke-width="0.8" stroke-linecap="round" stroke-linejoin="round"/>
<path d="M7 19.75C8.03553 19.75 8.875 18.9105 8.875 17.875C8.875 16.8395 8.03553 16 7 16C5.96447 16 5.125 16.8395 5.125 17.875C5.125 18.9105 5.96447 19.75 7 19.75Z" stroke="black" stroke-width="0.8" stroke-linecap="round" stroke-linejoin="round"/>
<path d="M16.75 19.75C17.7855 19.75 18.625 18.9105 18.625 17.875C18.625 16.8395 17.7855 16 16.75 16C15.7145 16 14.875 16.8395 14.875 17.875C14.875 18.9105 15.7145 19.75 16.75 19.75Z" stroke="black" stroke-width="0.8" stroke-linecap="round" stroke-linejoin="round"/>
<path d="M5.35938 12.25H17.1344C17.485 12.2511 17.8247 12.1285 18.0939 11.9039C18.3631 11.6793 18.5445 11.367 18.6063 11.0219L19.75 4.75H4" stroke="black" stroke-width="0.8" stroke-linecap="round" stroke-linejoin="round"/>
</svg>
