<svg width="294" height="88" viewBox="0 0 294 88" fill="none" xmlns="http://www.w3.org/2000/svg">
<rect width="294" height="88" fill="#2E7A62"/>
<path d="M134.712 22.49V24.164H129.402V27.854H133.542V29.528H129.402V35H127.35V22.49H134.712ZM144.552 35L141.672 29.996H140.106V35H138.054V22.49H142.374C143.334 22.49 144.144 22.658 144.804 22.994C145.476 23.33 145.974 23.78 146.298 24.344C146.634 24.908 146.802 25.538 146.802 26.234C146.802 27.05 146.562 27.794 146.082 28.466C145.614 29.126 144.888 29.576 143.904 29.816L147 35H144.552ZM140.106 28.358H142.374C143.142 28.358 143.718 28.166 144.102 27.782C144.498 27.398 144.696 26.882 144.696 26.234C144.696 25.586 144.504 25.082 144.12 24.722C143.736 24.35 143.154 24.164 142.374 24.164H140.106V28.358ZM152.919 24.146V27.818H157.239V29.492H152.919V33.326H157.779V35H150.867V22.472H157.779V24.146H152.919ZM163.798 24.146V27.818H168.118V29.492H163.798V33.326H168.658V35H161.746V22.472H168.658V24.146H163.798ZM182.863 35.126C182.023 35.126 181.267 34.982 180.595 34.694C179.923 34.394 179.395 33.974 179.011 33.434C178.627 32.894 178.435 32.264 178.435 31.544H180.631C180.679 32.084 180.889 32.528 181.261 32.876C181.645 33.224 182.179 33.398 182.863 33.398C183.571 33.398 184.123 33.23 184.519 32.894C184.915 32.546 185.113 32.102 185.113 31.562C185.113 31.142 184.987 30.8 184.735 30.536C184.495 30.272 184.189 30.068 183.817 29.924C183.457 29.78 182.953 29.624 182.305 29.456C181.489 29.24 180.823 29.024 180.307 28.808C179.803 28.58 179.371 28.232 179.011 27.764C178.651 27.296 178.471 26.672 178.471 25.892C178.471 25.172 178.651 24.542 179.011 24.002C179.371 23.462 179.875 23.048 180.523 22.76C181.171 22.472 181.921 22.328 182.773 22.328C183.985 22.328 184.975 22.634 185.743 23.246C186.523 23.846 186.955 24.674 187.039 25.73H184.771C184.735 25.274 184.519 24.884 184.123 24.56C183.727 24.236 183.205 24.074 182.557 24.074C181.969 24.074 181.489 24.224 181.117 24.524C180.745 24.824 180.559 25.256 180.559 25.82C180.559 26.204 180.673 26.522 180.901 26.774C181.141 27.014 181.441 27.206 181.801 27.35C182.161 27.494 182.653 27.65 183.277 27.818C184.105 28.046 184.777 28.274 185.293 28.502C185.821 28.73 186.265 29.084 186.625 29.564C186.997 30.032 187.183 30.662 187.183 31.454C187.183 32.09 187.009 32.69 186.661 33.254C186.325 33.818 185.827 34.274 185.167 34.622C184.519 34.958 183.751 35.126 182.863 35.126ZM201.035 22.49V35H198.983V29.528H193.097V35H191.045V22.49H193.097V27.854H198.983V22.49H201.035ZM207.228 22.49V35H205.176V22.49H207.228ZM220.11 26.216C220.11 26.852 219.96 27.452 219.66 28.016C219.36 28.58 218.88 29.042 218.22 29.402C217.56 29.75 216.714 29.924 215.682 29.924H213.414V35H211.362V22.49H215.682C216.642 22.49 217.452 22.658 218.112 22.994C218.784 23.318 219.282 23.762 219.606 24.326C219.942 24.89 220.11 25.52 220.11 26.216ZM215.682 28.25C216.462 28.25 217.044 28.076 217.428 27.728C217.812 27.368 218.004 26.864 218.004 26.216C218.004 24.848 217.23 24.164 215.682 24.164H213.414V28.25H215.682ZM232.255 26.216C232.255 26.852 232.105 27.452 231.805 28.016C231.505 28.58 231.025 29.042 230.365 29.402C229.705 29.75 228.859 29.924 227.827 29.924H225.559V35H223.507V22.49H227.827C228.787 22.49 229.597 22.658 230.257 22.994C230.929 23.318 231.427 23.762 231.751 24.326C232.087 24.89 232.255 25.52 232.255 26.216ZM227.827 28.25C228.607 28.25 229.189 28.076 229.573 27.728C229.957 27.368 230.149 26.864 230.149 26.216C230.149 24.848 229.375 24.164 227.827 24.164H225.559V28.25H227.827ZM237.704 22.49V35H235.652V22.49H237.704ZM252.116 35H250.064L243.89 25.658V35H241.838V22.472H243.89L250.064 31.796V22.472H252.116V35ZM265.305 26.09C264.981 25.466 264.531 24.998 263.955 24.686C263.379 24.362 262.713 24.2 261.957 24.2C261.129 24.2 260.391 24.386 259.743 24.758C259.095 25.13 258.585 25.658 258.213 26.342C257.853 27.026 257.673 27.818 257.673 28.718C257.673 29.618 257.853 30.416 258.213 31.112C258.585 31.796 259.095 32.324 259.743 32.696C260.391 33.068 261.129 33.254 261.957 33.254C263.073 33.254 263.979 32.942 264.675 32.318C265.371 31.694 265.797 30.848 265.953 29.78H261.255V28.142H268.149V29.744C268.017 30.716 267.669 31.61 267.105 32.426C266.553 33.242 265.827 33.896 264.927 34.388C264.039 34.868 263.049 35.108 261.957 35.108C260.781 35.108 259.707 34.838 258.735 34.298C257.763 33.746 256.989 32.984 256.413 32.012C255.849 31.04 255.567 29.942 255.567 28.718C255.567 27.494 255.849 26.396 256.413 25.424C256.989 24.452 257.763 23.696 258.735 23.156C259.719 22.604 260.793 22.328 261.957 22.328C263.289 22.328 264.471 22.658 265.503 23.318C266.547 23.966 267.303 24.89 267.771 26.09H265.305Z" fill="white"/>
<path d="M134.406 53.902C133.746 53.038 132.882 52.606 131.814 52.606C130.746 52.606 129.924 53.05 129.348 53.938C128.772 54.814 128.484 55.936 128.484 57.304C128.484 57.424 128.484 57.538 128.484 57.646C128.508 59.362 128.832 60.622 129.456 61.426C130.092 62.23 130.95 62.632 132.03 62.632C133.122 62.632 133.956 62.206 134.532 61.354C135.108 60.502 135.396 59.35 135.396 57.898C135.396 56.098 135.066 54.766 134.406 53.902ZM136.89 57.646C136.89 59.326 136.44 60.7 135.54 61.768C134.64 62.824 133.434 63.352 131.922 63.352C130.422 63.352 129.228 62.824 128.34 61.768C127.452 60.712 127.008 59.338 127.008 57.646C127.008 55.954 127.452 54.574 128.34 53.506C129.228 52.426 130.422 51.886 131.922 51.886C133.422 51.886 134.622 52.426 135.522 53.506C136.434 54.574 136.89 55.954 136.89 57.646ZM146.145 57.394V62.308C146.529 62.452 146.949 62.542 147.405 62.578C147.405 62.746 147.393 62.926 147.369 63.118H143.697C143.685 62.974 143.691 62.794 143.715 62.578C144.147 62.53 144.441 62.446 144.597 62.326C144.765 62.206 144.849 61.996 144.849 61.696V57.502C144.849 56.914 144.711 56.464 144.435 56.152C144.159 55.84 143.775 55.684 143.283 55.684C142.239 55.684 141.459 56.308 140.943 57.556V62.308C141.279 62.452 141.687 62.542 142.167 62.578C142.167 62.794 142.149 62.974 142.113 63.118H138.423C138.399 62.938 138.411 62.758 138.459 62.578C138.903 62.53 139.209 62.446 139.377 62.326C139.557 62.206 139.647 61.996 139.647 61.696V55.972C139.299 55.96 139.029 55.954 138.837 55.954C138.645 55.954 138.495 55.954 138.387 55.954C138.387 55.81 138.411 55.654 138.459 55.486C139.251 55.174 140.031 54.952 140.799 54.82C140.871 55.276 140.919 55.864 140.943 56.584C141.555 55.336 142.485 54.712 143.733 54.712C144.441 54.712 145.017 54.94 145.461 55.396C145.917 55.852 146.145 56.518 146.145 57.394ZM149.596 61.696V51.418C149.464 51.406 149.296 51.4 149.092 51.4C148.888 51.4 148.636 51.406 148.336 51.418C148.336 51.274 148.36 51.106 148.408 50.914C149.2 50.59 150.028 50.368 150.892 50.248V62.308C151.228 62.452 151.636 62.542 152.116 62.578C152.116 62.794 152.098 62.974 152.062 63.118H148.372C148.348 62.938 148.36 62.758 148.408 62.578C148.852 62.53 149.158 62.446 149.326 62.326C149.506 62.206 149.596 61.996 149.596 61.696ZM154.787 67.168H154.553C154.433 66.868 154.373 66.61 154.373 66.394C154.373 66.19 154.385 66.028 154.409 65.908H154.751C155.135 65.908 155.435 65.83 155.651 65.674C155.879 65.518 156.101 65.218 156.317 64.774L156.965 63.388L154.157 56.458C154.025 56.11 153.875 55.87 153.707 55.738C153.539 55.606 153.251 55.516 152.843 55.468C152.819 55.324 152.807 55.21 152.807 55.126C152.807 55.042 152.807 54.976 152.807 54.928H156.515C156.563 55.072 156.587 55.252 156.587 55.468C156.035 55.516 155.615 55.6 155.327 55.72L157.613 61.984C157.649 61.792 157.715 61.576 157.811 61.336L159.683 56.584C159.755 56.404 159.791 56.248 159.791 56.116C159.791 55.984 159.755 55.876 159.683 55.792C159.527 55.624 159.161 55.516 158.585 55.468C158.537 55.228 158.525 55.048 158.549 54.928H161.843C161.855 55.096 161.825 55.276 161.753 55.468C161.513 55.504 161.243 55.564 160.943 55.648L157.037 64.972C156.713 65.752 156.383 66.31 156.047 66.646C155.711 66.994 155.291 67.168 154.787 67.168ZM168.105 53.83C168.105 52.666 168.381 51.796 168.933 51.22C169.485 50.632 170.127 50.338 170.859 50.338C171.603 50.338 172.245 50.608 172.785 51.148C172.773 51.664 172.701 52.204 172.569 52.768C172.473 52.768 172.299 52.75 172.047 52.714C172.047 52.654 172.047 52.594 172.047 52.534C172.047 51.574 171.663 51.094 170.895 51.094C169.899 51.094 169.401 51.784 169.401 53.164V55.036C170.109 55.036 170.955 54.994 171.939 54.91C171.939 55.258 171.897 55.54 171.813 55.756H169.401V62.2C169.965 62.416 170.589 62.542 171.273 62.578C171.297 62.77 171.285 62.95 171.237 63.118H166.863C166.851 63.058 166.845 62.98 166.845 62.884C166.845 62.788 166.869 62.686 166.917 62.578C167.361 62.518 167.667 62.428 167.835 62.308C168.015 62.188 168.105 61.978 168.105 61.678V55.774C167.769 55.726 167.379 55.702 166.935 55.702C166.935 55.57 166.947 55.444 166.971 55.324C167.391 55.18 167.769 55.084 168.105 55.036V53.83ZM174.599 61.624C175.043 62.26 175.667 62.578 176.471 62.578C177.275 62.578 177.863 62.278 178.235 61.678C178.619 61.066 178.811 60.25 178.811 59.23C178.811 58.006 178.595 57.064 178.163 56.404C177.731 55.732 177.113 55.396 176.309 55.396C175.517 55.396 174.923 55.714 174.527 56.35C174.143 56.974 173.951 57.808 173.951 58.852C173.951 60.052 174.167 60.976 174.599 61.624ZM176.417 54.712C177.569 54.712 178.487 55.108 179.171 55.9C179.867 56.68 180.215 57.718 180.215 59.014C180.215 60.31 179.861 61.354 179.153 62.146C178.445 62.938 177.503 63.334 176.327 63.334C175.163 63.334 174.245 62.944 173.573 62.164C172.901 61.372 172.565 60.328 172.565 59.032C172.565 57.736 172.919 56.692 173.627 55.9C174.335 55.108 175.265 54.712 176.417 54.712ZM184.045 57.07V57.196C184.333 56.452 184.765 55.852 185.341 55.396C185.917 54.94 186.535 54.712 187.195 54.712C187.255 54.856 187.285 55.036 187.285 55.252C187.285 55.456 187.243 55.702 187.159 55.99C186.163 55.99 185.347 56.32 184.711 56.98C184.351 57.376 184.129 57.868 184.045 58.456V62.2C184.585 62.416 185.215 62.542 185.935 62.578C185.935 62.806 185.911 62.986 185.863 63.118H181.525C181.513 62.974 181.519 62.794 181.543 62.578C181.999 62.518 182.311 62.428 182.479 62.308C182.659 62.188 182.749 61.978 182.749 61.678V55.972C182.401 55.96 182.131 55.954 181.939 55.954C181.747 55.954 181.597 55.954 181.489 55.954C181.489 55.81 181.513 55.654 181.561 55.486C182.353 55.174 183.133 54.952 183.901 54.82C183.997 55.432 184.045 56.182 184.045 57.07ZM205.943 63.118C205.931 63.058 205.925 62.986 205.925 62.902C205.925 62.806 205.949 62.704 205.997 62.596C206.573 62.536 206.975 62.452 207.203 62.344C207.431 62.224 207.545 62.026 207.545 61.75V53.398L205.979 53.614C205.979 53.434 205.985 53.314 205.997 53.254C207.101 52.63 207.947 52.18 208.535 51.904L208.823 52.012V62.236C209.267 62.44 209.789 62.56 210.389 62.596C210.389 62.8 210.371 62.974 210.335 63.118H205.943ZM214.482 63.532C214.482 64.444 214.08 65.44 213.276 66.52L212.592 66.196C212.592 66.184 212.634 66.112 212.718 65.98C212.802 65.86 212.85 65.788 212.862 65.764C212.874 65.74 212.916 65.668 212.988 65.548C213.06 65.428 213.102 65.344 213.114 65.296C213.138 65.26 213.174 65.188 213.222 65.08C213.282 64.972 213.324 64.888 213.348 64.828C213.456 64.528 213.51 64.234 213.51 63.946C213.51 63.262 213.15 62.74 212.43 62.38V62.308L212.97 61.39C213.51 61.606 213.894 61.912 214.122 62.308C214.362 62.692 214.482 63.1 214.482 63.532ZM218.074 57.268C218.074 60.808 218.872 62.578 220.468 62.578C221.968 62.578 222.718 61.042 222.718 57.97C222.718 54.418 221.914 52.642 220.306 52.642C218.818 52.642 218.074 54.184 218.074 57.268ZM223.15 53.452C223.786 54.484 224.104 55.876 224.104 57.628C224.104 59.38 223.786 60.772 223.15 61.804C222.514 62.824 221.59 63.334 220.378 63.334C219.178 63.334 218.26 62.824 217.624 61.804C217 60.772 216.688 59.38 216.688 57.628C216.688 55.876 217.006 54.484 217.642 53.452C218.278 52.408 219.196 51.886 220.396 51.886C221.596 51.886 222.514 52.408 223.15 53.452ZM227.215 57.268C227.215 60.808 228.013 62.578 229.609 62.578C231.109 62.578 231.859 61.042 231.859 57.97C231.859 54.418 231.055 52.642 229.447 52.642C227.959 52.642 227.215 54.184 227.215 57.268ZM232.291 53.452C232.927 54.484 233.245 55.876 233.245 57.628C233.245 59.38 232.927 60.772 232.291 61.804C231.655 62.824 230.731 63.334 229.519 63.334C228.319 63.334 227.401 62.824 226.765 61.804C226.141 60.772 225.829 59.38 225.829 57.628C225.829 55.876 226.147 54.484 226.783 53.452C227.419 52.408 228.337 51.886 229.537 51.886C230.737 51.886 231.655 52.408 232.291 53.452ZM236.355 57.268C236.355 60.808 237.153 62.578 238.749 62.578C240.249 62.578 240.999 61.042 240.999 57.97C240.999 54.418 240.195 52.642 238.587 52.642C237.099 52.642 236.355 54.184 236.355 57.268ZM241.431 53.452C242.067 54.484 242.385 55.876 242.385 57.628C242.385 59.38 242.067 60.772 241.431 61.804C240.795 62.824 239.871 63.334 238.659 63.334C237.459 63.334 236.541 62.824 235.905 61.804C235.281 60.772 234.969 59.38 234.969 57.628C234.969 55.876 235.287 54.484 235.923 53.452C236.559 52.408 237.477 51.886 238.677 51.886C239.877 51.886 240.795 52.408 241.431 53.452Z" fill="white"/>
<path d="M203.462 52.12C203.462 52.36 203.444 52.528 203.408 52.624C202.58 52.72 202.166 53.044 202.166 53.596V63.118H201.59L195.704 54.856L194.804 53.488V62.326C195.164 62.482 195.614 62.572 196.154 62.596C196.166 62.74 196.148 62.914 196.1 63.118H192.716C192.704 63.058 192.698 62.986 192.698 62.902C192.698 62.806 192.716 62.704 192.752 62.596C193.58 62.488 193.994 62.17 193.994 61.642V52.876C193.682 52.732 193.274 52.648 192.77 52.624C192.77 52.408 192.788 52.24 192.824 52.12H195.29L199.916 58.582L201.356 60.742V52.894C201.056 52.762 200.6 52.672 199.988 52.624C199.964 52.456 199.982 52.288 200.042 52.12H203.462Z" fill="white"/>
<path d="M193 56H203V57H193V56Z" fill="white"/>
<path d="M193 58H203V59H193V58Z" fill="white"/>
<path d="M78.6001 39.8874L78.5461 40.3844L78.6001 39.8874C77.0177 39.7154 75.5182 39.0106 74.3118 37.8633L67.2001 31.0987C65.3465 29.3354 62.9592 28.3571 60.4807 28.3571H35.1702C31.1541 28.3571 27.9681 31.883 27.9681 36.1429V52.3333C27.9681 53.0166 28.4869 53.6429 29.2128 53.6429H35.1702C36.0894 53.6429 36.9043 54.4662 36.9043 55.5714C36.9043 56.6766 36.0894 57.5 35.1702 57.5H29.2128C26.6485 57.5 24.5 55.2269 24.5 52.3333V36.1429C24.5 29.6726 29.3157 24.5 35.1702 24.5H60.4807C63.7741 24.5 66.963 25.7992 69.4533 28.1679L76.5647 34.9324C77.2239 35.5595 78.0526 35.9525 78.9368 36.0486L83.8871 36.5867C89.3113 37.1765 93.5 42.1553 93.5 48.1724V52.3333C93.5 55.2269 91.3515 57.5 88.7872 57.5H79.8511C78.9319 57.5 78.117 56.6766 78.117 55.5714C78.117 54.4662 78.9319 53.6429 79.8511 53.6429H88.7872C89.5132 53.6429 90.0319 53.0165 90.0319 52.3333V48.1724C90.0319 44.2078 87.2629 40.829 83.5507 40.4255L78.6001 39.8874ZM45.3511 55.5714C45.3511 54.4662 46.1659 53.6429 47.0851 53.6429H67.9362C68.8553 53.6429 69.6702 54.4662 69.6702 55.5714C69.6702 56.6766 68.8553 57.5 67.9362 57.5H47.0851C46.1659 57.5 45.3511 56.6766 45.3511 55.5714Z" fill="white" stroke="#2E7A62"/>
<path d="M41.0388 51.6481C38.7171 51.6481 36.8351 53.53 36.8351 55.8518C36.8351 58.1735 38.7171 60.0555 41.0388 60.0555C43.3604 60.0555 45.2425 58.1735 45.2425 55.8518C45.2425 53.53 43.3604 51.6481 41.0388 51.6481ZM33.3906 55.8518C33.3906 51.6278 36.8148 48.2036 41.0388 48.2036C45.2627 48.2036 48.6869 51.6278 48.6869 55.8518C48.6869 60.0758 45.2627 63.4999 41.0388 63.4999C36.8148 63.4999 33.3906 60.0758 33.3906 55.8518Z" fill="white" stroke="#2E7A62"/>
<path d="M73.6325 51.6481C71.3108 51.6481 69.4288 53.53 69.4288 55.8518C69.4288 58.1735 71.3108 60.0555 73.6325 60.0555C75.9543 60.0555 77.8362 58.1735 77.8362 55.8518C77.8362 53.53 75.9543 51.6481 73.6325 51.6481ZM65.9844 55.8518C65.9844 51.6278 69.4085 48.2036 73.6325 48.2036C77.8565 48.2036 81.2807 51.6278 81.2807 55.8518C81.2807 60.0758 77.8565 63.4999 73.6325 63.4999C69.4085 63.4999 65.9844 60.0758 65.9844 55.8518Z" fill="white" stroke="#2E7A62"/>
<path d="M83.7578 44.0001C83.7578 43.0489 84.5289 42.2778 85.48 42.2778H89.9245C90.8756 42.2778 91.6467 43.0489 91.6467 44.0001C91.6467 44.9512 90.8756 45.7223 89.9245 45.7223H85.48C84.5289 45.7223 83.7578 44.9512 83.7578 44.0001Z" fill="white" stroke="#2E7A62"/>
<path d="M49.9253 24.5C50.8765 24.5 51.6476 25.2711 51.6476 26.2222V38.0741C51.6476 39.0252 50.8765 39.7963 49.9253 39.7963C48.9742 39.7963 48.2031 39.0252 48.2031 38.0741V26.2222C48.2031 25.2711 48.9742 24.5 49.9253 24.5Z" fill="white" stroke="#2E7A62"/>
<path d="M33.3906 38.074C33.3906 37.1229 34.1617 36.3518 35.1128 36.3518H66.224C67.1751 36.3518 67.9462 37.1229 67.9462 38.074C67.9462 39.0251 67.1751 39.7963 66.224 39.7963H35.1128C34.1617 39.7963 33.3906 39.0252 33.3906 38.074Z" fill="white" stroke="#2E7A62"/>
</svg>
