<svg width="294" height="88" viewBox="0 0 294 88" fill="none" xmlns="http://www.w3.org/2000/svg">
<rect width="294" height="88" fill="#2E7A62"/>
<path d="M98.214 32.21C99.366 31.214 100.272 30.398 100.932 29.762C101.604 29.114 102.162 28.442 102.606 27.746C103.05 27.05 103.272 26.354 103.272 25.658C103.272 24.938 103.098 24.374 102.75 23.966C102.414 23.558 101.88 23.354 101.148 23.354C100.44 23.354 99.888 23.582 99.492 24.038C99.108 24.482 98.904 25.082 98.88 25.838H96.9C96.936 24.47 97.344 23.426 98.124 22.706C98.916 21.974 99.918 21.608 101.13 21.608C102.438 21.608 103.458 21.968 104.19 22.688C104.934 23.408 105.306 24.368 105.306 25.568C105.306 26.432 105.084 27.266 104.64 28.07C104.208 28.862 103.686 29.576 103.074 30.212C102.474 30.836 101.706 31.562 100.77 32.39L99.96 33.11H105.666V34.82H96.918V33.326L98.214 32.21ZM108.657 32.264V30.716L114.705 22.04H117.189V30.482H118.863V32.264H117.189V35H115.173V32.264H108.657ZM115.263 24.128L111.015 30.482H115.263V24.128ZM128.933 18.008L124.037 38.15H122.021L126.899 18.008H128.933ZM141.005 23.462L136.001 35H133.931L138.989 23.678H132.329V21.932H141.005V23.462ZM154.709 35.126C153.869 35.126 153.113 34.982 152.441 34.694C151.769 34.394 151.241 33.974 150.857 33.434C150.473 32.894 150.281 32.264 150.281 31.544H152.477C152.525 32.084 152.735 32.528 153.107 32.876C153.491 33.224 154.025 33.398 154.709 33.398C155.417 33.398 155.969 33.23 156.365 32.894C156.761 32.546 156.959 32.102 156.959 31.562C156.959 31.142 156.833 30.8 156.581 30.536C156.341 30.272 156.035 30.068 155.663 29.924C155.303 29.78 154.799 29.624 154.151 29.456C153.335 29.24 152.669 29.024 152.153 28.808C151.649 28.58 151.217 28.232 150.857 27.764C150.497 27.296 150.317 26.672 150.317 25.892C150.317 25.172 150.497 24.542 150.857 24.002C151.217 23.462 151.721 23.048 152.369 22.76C153.017 22.472 153.767 22.328 154.619 22.328C155.831 22.328 156.821 22.634 157.589 23.246C158.369 23.846 158.801 24.674 158.885 25.73H156.617C156.581 25.274 156.365 24.884 155.969 24.56C155.573 24.236 155.051 24.074 154.403 24.074C153.815 24.074 153.335 24.224 152.963 24.524C152.591 24.824 152.405 25.256 152.405 25.82C152.405 26.204 152.519 26.522 152.747 26.774C152.987 27.014 153.287 27.206 153.647 27.35C154.007 27.494 154.499 27.65 155.123 27.818C155.951 28.046 156.623 28.274 157.139 28.502C157.667 28.73 158.111 29.084 158.471 29.564C158.843 30.032 159.029 30.662 159.029 31.454C159.029 32.09 158.855 32.69 158.507 33.254C158.171 33.818 157.673 34.274 157.013 34.622C156.365 34.958 155.597 35.126 154.709 35.126ZM164.924 22.49V30.464C164.924 31.412 165.17 32.126 165.662 32.606C166.166 33.086 166.862 33.326 167.75 33.326C168.65 33.326 169.346 33.086 169.838 32.606C170.342 32.126 170.594 31.412 170.594 30.464V22.49H172.646V30.428C172.646 31.448 172.424 32.312 171.98 33.02C171.536 33.728 170.942 34.256 170.198 34.604C169.454 34.952 168.632 35.126 167.732 35.126C166.832 35.126 166.01 34.952 165.266 34.604C164.534 34.256 163.952 33.728 163.52 33.02C163.088 32.312 162.872 31.448 162.872 30.428V22.49H164.924ZM185.506 26.216C185.506 26.852 185.356 27.452 185.056 28.016C184.756 28.58 184.276 29.042 183.616 29.402C182.956 29.75 182.11 29.924 181.078 29.924H178.81V35H176.758V22.49H181.078C182.038 22.49 182.848 22.658 183.508 22.994C184.18 23.318 184.678 23.762 185.002 24.326C185.338 24.89 185.506 25.52 185.506 26.216ZM181.078 28.25C181.858 28.25 182.44 28.076 182.824 27.728C183.208 27.368 183.4 26.864 183.4 26.216C183.4 24.848 182.626 24.164 181.078 24.164H178.81V28.25H181.078ZM197.651 26.216C197.651 26.852 197.501 27.452 197.201 28.016C196.901 28.58 196.421 29.042 195.761 29.402C195.101 29.75 194.255 29.924 193.223 29.924H190.955V35H188.903V22.49H193.223C194.183 22.49 194.993 22.658 195.653 22.994C196.325 23.318 196.823 23.762 197.147 24.326C197.483 24.89 197.651 25.52 197.651 26.216ZM193.223 28.25C194.003 28.25 194.585 28.076 194.969 27.728C195.353 27.368 195.545 26.864 195.545 26.216C195.545 24.848 194.771 24.164 193.223 24.164H190.955V28.25H193.223ZM206.754 35.126C205.59 35.126 204.516 34.856 203.532 34.316C202.56 33.764 201.786 33.002 201.21 32.03C200.646 31.046 200.364 29.942 200.364 28.718C200.364 27.494 200.646 26.396 201.21 25.424C201.786 24.452 202.56 23.696 203.532 23.156C204.516 22.604 205.59 22.328 206.754 22.328C207.93 22.328 209.004 22.604 209.976 23.156C210.96 23.696 211.734 24.452 212.298 25.424C212.862 26.396 213.144 27.494 213.144 28.718C213.144 29.942 212.862 31.046 212.298 32.03C211.734 33.002 210.96 33.764 209.976 34.316C209.004 34.856 207.93 35.126 206.754 35.126ZM206.754 33.344C207.582 33.344 208.32 33.158 208.968 32.786C209.616 32.402 210.12 31.862 210.48 31.166C210.852 30.458 211.038 29.642 211.038 28.718C211.038 27.794 210.852 26.984 210.48 26.288C210.12 25.592 209.616 25.058 208.968 24.686C208.32 24.314 207.582 24.128 206.754 24.128C205.926 24.128 205.188 24.314 204.54 24.686C203.892 25.058 203.382 25.592 203.01 26.288C202.65 26.984 202.47 27.794 202.47 28.718C202.47 29.642 202.65 30.458 203.01 31.166C203.382 31.862 203.892 32.402 204.54 32.786C205.188 33.158 205.926 33.344 206.754 33.344ZM223.102 35L220.222 29.996H218.656V35H216.604V22.49H220.924C221.884 22.49 222.694 22.658 223.354 22.994C224.026 23.33 224.524 23.78 224.848 24.344C225.184 24.908 225.352 25.538 225.352 26.234C225.352 27.05 225.112 27.794 224.632 28.466C224.164 29.126 223.438 29.576 222.454 29.816L225.55 35H223.102ZM218.656 28.358H220.924C221.692 28.358 222.268 28.166 222.652 27.782C223.048 27.398 223.246 26.882 223.246 26.234C223.246 25.586 223.054 25.082 222.67 24.722C222.286 24.35 221.704 24.164 220.924 24.164H218.656V28.358ZM237.499 22.49V24.164H234.169V35H232.117V24.164H228.769V22.49H237.499Z" fill="white"/>
<path d="M104.874 52.12C104.91 52.456 104.928 52.822 104.928 53.218C104.928 53.602 104.91 54.01 104.874 54.442C104.79 54.478 104.64 54.496 104.424 54.496C104.364 53.836 104.22 53.38 103.992 53.128C103.764 52.864 103.368 52.732 102.804 52.732H101.274V62.29C101.778 62.47 102.336 62.572 102.948 62.596C102.972 62.776 102.96 62.95 102.912 63.118H98.286C98.262 62.926 98.28 62.752 98.34 62.596C98.988 62.536 99.42 62.452 99.636 62.344C99.864 62.224 99.978 62.02 99.978 61.732V52.732H98.448C97.884 52.732 97.488 52.864 97.26 53.128C97.032 53.38 96.888 53.836 96.828 54.496C96.612 54.496 96.462 54.478 96.378 54.442C96.342 54.07 96.324 53.692 96.324 53.308C96.324 52.912 96.342 52.516 96.378 52.12H104.874ZM108.036 61.624C108.48 62.26 109.104 62.578 109.908 62.578C110.712 62.578 111.3 62.278 111.672 61.678C112.056 61.066 112.248 60.25 112.248 59.23C112.248 58.006 112.032 57.064 111.6 56.404C111.168 55.732 110.55 55.396 109.746 55.396C108.954 55.396 108.36 55.714 107.964 56.35C107.58 56.974 107.388 57.808 107.388 58.852C107.388 60.052 107.604 60.976 108.036 61.624ZM109.854 54.712C111.006 54.712 111.924 55.108 112.608 55.9C113.304 56.68 113.652 57.718 113.652 59.014C113.652 60.31 113.298 61.354 112.59 62.146C111.882 62.938 110.94 63.334 109.764 63.334C108.6 63.334 107.682 62.944 107.01 62.164C106.338 61.372 106.002 60.328 106.002 59.032C106.002 57.736 106.356 56.692 107.064 55.9C107.772 55.108 108.702 54.712 109.854 54.712ZM121.982 57.07V57.196C122.27 56.452 122.702 55.852 123.278 55.396C123.854 54.94 124.472 54.712 125.132 54.712C125.192 54.856 125.222 55.036 125.222 55.252C125.222 55.456 125.18 55.702 125.096 55.99C124.1 55.99 123.284 56.32 122.648 56.98C122.288 57.376 122.066 57.868 121.982 58.456V62.2C122.522 62.416 123.152 62.542 123.872 62.578C123.872 62.806 123.848 62.986 123.8 63.118H119.462C119.45 62.974 119.456 62.794 119.48 62.578C119.936 62.518 120.248 62.428 120.416 62.308C120.596 62.188 120.686 61.978 120.686 61.678V55.972C120.338 55.96 120.068 55.954 119.876 55.954C119.684 55.954 119.534 55.954 119.426 55.954C119.426 55.81 119.45 55.654 119.498 55.486C120.29 55.174 121.07 54.952 121.838 54.82C121.934 55.432 121.982 56.182 121.982 57.07ZM131.64 57.718C131.628 56.938 131.442 56.362 131.082 55.99C130.722 55.618 130.284 55.432 129.768 55.432C129.264 55.432 128.79 55.636 128.346 56.044C127.902 56.452 127.614 57.064 127.482 57.88L129.57 57.736L131.64 57.718ZM127.392 58.888C127.392 60.004 127.62 60.868 128.076 61.48C128.544 62.08 129.222 62.38 130.11 62.38C130.998 62.38 131.874 62.092 132.738 61.516L132.9 61.84C132.024 62.836 130.95 63.334 129.678 63.334C128.778 63.334 127.962 63.004 127.23 62.344C126.858 62.008 126.558 61.57 126.33 61.03C126.114 60.478 126.006 59.86 126.006 59.176C126.006 57.772 126.414 56.68 127.23 55.9C128.046 55.108 128.922 54.712 129.858 54.712C130.794 54.712 131.55 55.012 132.126 55.612C132.714 56.2 133.008 57.046 133.008 58.15C132.936 58.282 132.87 58.39 132.81 58.474H127.41C127.398 58.558 127.392 58.696 127.392 58.888ZM137.233 62.65C137.833 62.65 138.307 62.524 138.655 62.272C139.003 62.008 139.177 61.69 139.177 61.318C139.177 60.946 139.033 60.634 138.745 60.382C138.457 60.13 138.103 59.908 137.683 59.716C137.263 59.524 136.843 59.326 136.423 59.122C136.015 58.906 135.667 58.624 135.379 58.276C135.091 57.916 134.947 57.496 134.947 57.016C134.947 56.26 135.217 55.69 135.757 55.306C136.297 54.91 136.945 54.712 137.701 54.712C138.469 54.712 139.201 54.832 139.897 55.072C139.909 55.276 139.915 55.552 139.915 55.9C139.915 56.248 139.879 56.65 139.807 57.106C139.711 57.106 139.573 57.088 139.393 57.052C139.405 56.932 139.411 56.818 139.411 56.71C139.411 55.81 138.865 55.36 137.773 55.36C137.293 55.36 136.897 55.492 136.585 55.756C136.285 56.008 136.135 56.326 136.135 56.71C136.135 57.082 136.279 57.4 136.567 57.664C136.867 57.928 137.227 58.15 137.647 58.33C138.079 58.51 138.505 58.702 138.925 58.906C139.357 59.11 139.717 59.386 140.005 59.734C140.305 60.07 140.455 60.466 140.455 60.922C140.455 61.678 140.143 62.272 139.519 62.704C138.907 63.124 138.151 63.334 137.251 63.334C136.351 63.334 135.511 63.208 134.731 62.956C134.707 62.68 134.695 62.362 134.695 62.002C134.695 61.63 134.731 61.222 134.803 60.778C134.911 60.778 135.049 60.79 135.217 60.814C135.217 60.886 135.217 60.958 135.217 61.03C135.217 61.594 135.403 62.008 135.775 62.272C136.159 62.524 136.645 62.65 137.233 62.65ZM144.019 61.624C144.463 62.26 145.087 62.578 145.891 62.578C146.695 62.578 147.283 62.278 147.655 61.678C148.039 61.066 148.231 60.25 148.231 59.23C148.231 58.006 148.015 57.064 147.583 56.404C147.151 55.732 146.533 55.396 145.729 55.396C144.937 55.396 144.343 55.714 143.947 56.35C143.563 56.974 143.371 57.808 143.371 58.852C143.371 60.052 143.587 60.976 144.019 61.624ZM145.837 54.712C146.989 54.712 147.907 55.108 148.591 55.9C149.287 56.68 149.635 57.718 149.635 59.014C149.635 60.31 149.281 61.354 148.573 62.146C147.865 62.938 146.923 63.334 145.747 63.334C144.583 63.334 143.665 62.944 142.993 62.164C142.321 61.372 141.985 60.328 141.985 59.032C141.985 57.736 142.339 56.692 143.047 55.9C143.755 55.108 144.685 54.712 145.837 54.712ZM152.169 61.696V51.418C152.037 51.406 151.869 51.4 151.665 51.4C151.461 51.4 151.209 51.406 150.909 51.418C150.909 51.274 150.933 51.106 150.981 50.914C151.773 50.59 152.601 50.368 153.465 50.248V62.308C153.801 62.452 154.209 62.542 154.689 62.578C154.689 62.794 154.671 62.974 154.635 63.118H150.945C150.921 62.938 150.933 62.758 150.981 62.578C151.425 62.53 151.731 62.446 151.899 62.326C152.079 62.206 152.169 61.996 152.169 61.696ZM155.289 55.468C155.265 55.324 155.253 55.21 155.253 55.126C155.253 55.042 155.253 54.976 155.253 54.928H158.979C159.015 55.036 159.033 55.216 159.033 55.468C158.469 55.516 158.049 55.612 157.773 55.756L160.095 62.272C160.143 62.032 160.227 61.738 160.347 61.39L162.147 56.584C162.243 56.404 162.291 56.254 162.291 56.134C162.291 56.002 162.261 55.9 162.201 55.828C162.057 55.636 161.679 55.516 161.067 55.468C160.995 55.312 160.971 55.132 160.995 54.928H164.541C164.553 55.048 164.523 55.228 164.451 55.468C164.091 55.504 163.719 55.594 163.335 55.738L160.383 63.226H159.357L156.621 56.458C156.477 56.11 156.321 55.87 156.153 55.738C155.985 55.606 155.697 55.516 155.289 55.468ZM170.734 57.718C170.722 56.938 170.536 56.362 170.176 55.99C169.816 55.618 169.378 55.432 168.862 55.432C168.358 55.432 167.884 55.636 167.44 56.044C166.996 56.452 166.708 57.064 166.576 57.88L168.664 57.736L170.734 57.718ZM166.486 58.888C166.486 60.004 166.714 60.868 167.17 61.48C167.638 62.08 168.316 62.38 169.204 62.38C170.092 62.38 170.968 62.092 171.832 61.516L171.994 61.84C171.118 62.836 170.044 63.334 168.772 63.334C167.872 63.334 167.056 63.004 166.324 62.344C165.952 62.008 165.652 61.57 165.424 61.03C165.208 60.478 165.1 59.86 165.1 59.176C165.1 57.772 165.508 56.68 166.324 55.9C167.14 55.108 168.016 54.712 168.952 54.712C169.888 54.712 170.644 55.012 171.22 55.612C171.808 56.2 172.102 57.046 172.102 58.15C172.03 58.282 171.964 58.39 171.904 58.474H166.504C166.492 58.558 166.486 58.696 166.486 58.888ZM179.494 60.976C179.494 61.42 179.62 61.768 179.872 62.02C180.136 62.26 180.484 62.38 180.916 62.38C181.576 62.38 182.128 62.14 182.572 61.66V58.726L181.294 59.05C180.094 59.374 179.494 60.016 179.494 60.976ZM183.868 63.334C183.556 63.334 183.286 63.25 183.058 63.082C182.83 62.902 182.68 62.656 182.608 62.344C182.008 63.004 181.33 63.334 180.574 63.334C179.83 63.334 179.236 63.124 178.792 62.704C178.348 62.272 178.126 61.72 178.126 61.048C178.126 59.728 179.038 58.87 180.862 58.474L182.572 58.096V57.304C182.572 56.764 182.458 56.368 182.23 56.116C182.014 55.864 181.6 55.738 180.988 55.738C180.376 55.738 179.656 55.882 178.828 56.17L178.594 55.81C179.482 55.078 180.478 54.712 181.582 54.712C182.314 54.712 182.878 54.928 183.274 55.36C183.682 55.792 183.886 56.392 183.886 57.16V61.426C183.886 61.786 183.928 62.038 184.012 62.182C184.096 62.326 184.228 62.398 184.408 62.398C184.6 62.398 184.834 62.368 185.11 62.308L185.218 62.524C184.81 63.064 184.36 63.334 183.868 63.334ZM187.466 61.696V51.418C187.334 51.406 187.166 51.4 186.962 51.4C186.758 51.4 186.506 51.406 186.206 51.418C186.206 51.274 186.23 51.106 186.278 50.914C187.07 50.59 187.898 50.368 188.762 50.248V62.308C189.098 62.452 189.506 62.542 189.986 62.578C189.986 62.794 189.968 62.974 189.932 63.118H186.242C186.218 62.938 186.23 62.758 186.278 62.578C186.722 62.53 187.028 62.446 187.196 62.326C187.376 62.206 187.466 61.996 187.466 61.696ZM192.44 61.696V51.418C192.308 51.406 192.14 51.4 191.936 51.4C191.732 51.4 191.48 51.406 191.18 51.418C191.18 51.274 191.204 51.106 191.252 50.914C192.044 50.59 192.872 50.368 193.736 50.248V62.308C194.072 62.452 194.48 62.542 194.96 62.578C194.96 62.794 194.942 62.974 194.906 63.118H191.216C191.192 62.938 191.204 62.758 191.252 62.578C191.696 62.53 192.002 62.446 192.17 62.326C192.35 62.206 192.44 61.996 192.44 61.696ZM208.017 56.386V62.056C208.521 62.08 208.911 62.092 209.187 62.092C209.199 62.224 209.205 62.326 209.205 62.398C209.205 62.47 209.205 62.524 209.205 62.56C208.521 62.896 207.747 63.112 206.883 63.208C206.799 62.764 206.745 62.152 206.721 61.372C205.989 62.68 205.065 63.334 203.949 63.334C203.265 63.334 202.689 63.094 202.221 62.614C201.753 62.134 201.519 61.45 201.519 60.562V55.954C201.363 55.942 201.195 55.936 201.015 55.936C200.847 55.936 200.661 55.942 200.457 55.954C200.457 55.822 200.481 55.66 200.529 55.468C201.405 55.096 202.167 54.874 202.815 54.802V60.454C202.815 61.042 202.953 61.504 203.229 61.84C203.517 62.176 203.889 62.344 204.345 62.344C204.801 62.344 205.233 62.188 205.641 61.876C206.061 61.552 206.421 61.096 206.721 60.508V56.53C206.721 55.966 206.553 55.576 206.217 55.36C206.241 55.228 206.271 55.138 206.307 55.09C206.751 54.898 207.279 54.802 207.891 54.802C207.951 54.802 208.017 54.802 208.089 54.802C208.041 55.234 208.017 55.762 208.017 56.386ZM213.399 62.65C213.999 62.65 214.473 62.524 214.821 62.272C215.169 62.008 215.343 61.69 215.343 61.318C215.343 60.946 215.199 60.634 214.911 60.382C214.623 60.13 214.269 59.908 213.849 59.716C213.429 59.524 213.009 59.326 212.589 59.122C212.181 58.906 211.833 58.624 211.545 58.276C211.257 57.916 211.113 57.496 211.113 57.016C211.113 56.26 211.383 55.69 211.923 55.306C212.463 54.91 213.111 54.712 213.867 54.712C214.635 54.712 215.367 54.832 216.063 55.072C216.075 55.276 216.081 55.552 216.081 55.9C216.081 56.248 216.045 56.65 215.973 57.106C215.877 57.106 215.739 57.088 215.559 57.052C215.571 56.932 215.577 56.818 215.577 56.71C215.577 55.81 215.031 55.36 213.939 55.36C213.459 55.36 213.063 55.492 212.751 55.756C212.451 56.008 212.301 56.326 212.301 56.71C212.301 57.082 212.445 57.4 212.733 57.664C213.033 57.928 213.393 58.15 213.813 58.33C214.245 58.51 214.671 58.702 215.091 58.906C215.523 59.11 215.883 59.386 216.171 59.734C216.471 60.07 216.621 60.466 216.621 60.922C216.621 61.678 216.309 62.272 215.685 62.704C215.073 63.124 214.317 63.334 213.417 63.334C212.517 63.334 211.677 63.208 210.897 62.956C210.873 62.68 210.861 62.362 210.861 62.002C210.861 61.63 210.897 61.222 210.969 60.778C211.077 60.778 211.215 60.79 211.383 60.814C211.383 60.886 211.383 60.958 211.383 61.03C211.383 61.594 211.569 62.008 211.941 62.272C212.325 62.524 212.811 62.65 213.399 62.65ZM223.785 57.718C223.773 56.938 223.587 56.362 223.227 55.99C222.867 55.618 222.429 55.432 221.913 55.432C221.409 55.432 220.935 55.636 220.491 56.044C220.047 56.452 219.759 57.064 219.627 57.88L221.715 57.736L223.785 57.718ZM219.537 58.888C219.537 60.004 219.765 60.868 220.221 61.48C220.689 62.08 221.367 62.38 222.255 62.38C223.143 62.38 224.019 62.092 224.883 61.516L225.045 61.84C224.169 62.836 223.095 63.334 221.823 63.334C220.923 63.334 220.107 63.004 219.375 62.344C219.003 62.008 218.703 61.57 218.475 61.03C218.259 60.478 218.151 59.86 218.151 59.176C218.151 57.772 218.559 56.68 219.375 55.9C220.191 55.108 221.067 54.712 222.003 54.712C222.939 54.712 223.695 55.012 224.271 55.612C224.859 56.2 225.153 57.046 225.153 58.15C225.081 58.282 225.015 58.39 224.955 58.474H219.555C219.543 58.558 219.537 58.696 219.537 58.888ZM229.377 62.65C229.977 62.65 230.451 62.524 230.799 62.272C231.147 62.008 231.321 61.69 231.321 61.318C231.321 60.946 231.177 60.634 230.889 60.382C230.601 60.13 230.247 59.908 229.827 59.716C229.407 59.524 228.987 59.326 228.567 59.122C228.159 58.906 227.811 58.624 227.523 58.276C227.235 57.916 227.091 57.496 227.091 57.016C227.091 56.26 227.361 55.69 227.901 55.306C228.441 54.91 229.089 54.712 229.845 54.712C230.613 54.712 231.345 54.832 232.041 55.072C232.053 55.276 232.059 55.552 232.059 55.9C232.059 56.248 232.023 56.65 231.951 57.106C231.855 57.106 231.717 57.088 231.537 57.052C231.549 56.932 231.555 56.818 231.555 56.71C231.555 55.81 231.009 55.36 229.917 55.36C229.437 55.36 229.041 55.492 228.729 55.756C228.429 56.008 228.279 56.326 228.279 56.71C228.279 57.082 228.423 57.4 228.711 57.664C229.011 57.928 229.371 58.15 229.791 58.33C230.223 58.51 230.649 58.702 231.069 58.906C231.501 59.11 231.861 59.386 232.149 59.734C232.449 60.07 232.599 60.466 232.599 60.922C232.599 61.678 232.287 62.272 231.663 62.704C231.051 63.124 230.295 63.334 229.395 63.334C228.495 63.334 227.655 63.208 226.875 62.956C226.851 62.68 226.839 62.362 226.839 62.002C226.839 61.63 226.875 61.222 226.947 60.778C227.055 60.778 227.193 60.79 227.361 60.814C227.361 60.886 227.361 60.958 227.361 61.03C227.361 61.594 227.547 62.008 227.919 62.272C228.303 62.524 228.789 62.65 229.377 62.65Z" fill="white"/>
<path d="M67.2 39.9999C67.2 39.1167 66.4832 38.3999 65.6 38.3999C64.7168 38.3999 64 39.1167 64 39.9999C64 40.3807 64 51.6191 64 51.9999C64 52.8831 64.7168 53.5999 65.6 53.5999C66.4832 53.5999 67.2 52.8831 67.2 51.9999C67.2 51.6191 67.2 40.3807 67.2 39.9999Z" stroke="white" stroke-width="2.5" stroke-miterlimit="10"/>
<path d="M54.3969 61.5999C55.2801 61.5999 55.9969 60.8831 55.9969 59.9999C55.9969 59.1167 55.2801 58.3999 54.3969 58.3999C54.0161 58.3999 50.7777 58.3999 50.3969 58.3999C49.5137 58.3999 48.7969 59.1167 48.7969 59.9999C48.7969 60.8831 49.5137 61.5999 50.3969 61.5999C50.7777 61.5999 54.0161 61.5999 54.3969 61.5999Z" stroke="white" stroke-width="2.5" stroke-miterlimit="10"/>
<path d="M38.3984 39.2001C38.3984 31.6889 44.4872 25.6001 51.9984 25.6001C59.5096 25.6001 65.5984 31.6889 65.5984 39.2001" stroke="white" stroke-width="2.5" stroke-miterlimit="10"/>
<path d="M67.2031 40C69.4127 40 71.2031 42.6856 71.2031 46C71.2031 49.3128 69.4127 52 67.2031 52" stroke="white" stroke-width="2.5" stroke-miterlimit="10"/>
<path d="M36.7969 39.9999C36.7969 39.1167 37.5137 38.3999 38.3969 38.3999C39.2801 38.3999 39.9969 39.1167 39.9969 39.9999C39.9969 40.3807 39.9969 51.6191 39.9969 51.9999C39.9969 52.8831 39.2801 53.5999 38.3969 53.5999C37.5137 53.5999 36.7969 52.8831 36.7969 51.9999C36.7969 51.6191 36.7969 40.3807 36.7969 39.9999Z" stroke="white" stroke-width="2.5" stroke-miterlimit="10"/>
<path d="M36.7969 40C34.5881 40 32.7969 42.6856 32.7969 46C32.7969 49.3128 34.5881 52 36.7969 52" stroke="white" stroke-width="2.5" stroke-miterlimit="10"/>
<path d="M65.6 53.6001C65.6 57.6001 63.2 60.0001 59.2 60.0001H56" stroke="white" stroke-width="2.5" stroke-miterlimit="10"/>
</svg>
