<svg width="20" height="20" viewBox="0 0 20 20" fill="none" xmlns="http://www.w3.org/2000/svg">
<path fill-rule="evenodd" clip-rule="evenodd" d="M0 17.3405C0 18.2809 0.761658 19.0427 1.70204 19.0427H7.23397C8.1744 19.0427 8.93615 18.2809 8.93615 17.3405V10.532C8.93615 9.59154 8.1744 8.82983 7.23397 8.82983H4.50208C4.02954 8.82983 3.65106 8.44685 3.65106 7.97881C3.65106 7.82561 3.68923 7.71924 3.68923 7.71924C4.31047 5.65951 5.88048 4.00851 7.89338 3.27669L7.90181 3.26817C8.51055 3.00869 8.93611 2.40427 8.93611 1.70209C8.93611 0.761751 8.17435 0 7.23392 0C7.00414 0 6.78729 0.046743 6.58739 0.127536L6.51039 0.157512C2.70191 1.64251 0 5.34472 0 9.68085V17.3405ZM11.0639 17.3405C11.0639 18.2809 11.8256 19.0427 12.766 19.0427H18.298C19.2383 19.0427 20 18.2809 20 17.3405V10.532C20 9.59154 19.2383 8.82983 18.298 8.82983H15.566C15.0935 8.82983 14.715 8.44685 14.715 7.97881C14.715 7.82135 14.7531 7.71924 14.7531 7.71924C15.3745 5.65951 16.9444 4.00851 18.9574 3.27669L18.9658 3.26817C19.5744 3.00869 20 2.40427 20 1.70209C20 0.761751 19.2383 0 18.298 0C18.0682 0 17.8512 0.046743 17.6514 0.127536L17.5744 0.157512C13.7658 1.64251 11.0639 5.34472 11.0639 9.68085V17.3405Z" fill="#2A70D6"/>
</svg>
