<svg width="294" height="88" viewBox="0 0 294 88" fill="none" xmlns="http://www.w3.org/2000/svg">
<rect width="294" height="88" fill="#074E38"/>
<path d="M85.848 35L82.968 29.996H81.402V35H79.35V22.49H83.67C84.63 22.49 85.44 22.658 86.1 22.994C86.772 23.33 87.27 23.78 87.594 24.344C87.93 24.908 88.098 25.538 88.098 26.234C88.098 27.05 87.858 27.794 87.378 28.466C86.91 29.126 86.184 29.576 85.2 29.816L88.296 35H85.848ZM81.402 28.358H83.67C84.438 28.358 85.014 28.166 85.398 27.782C85.794 27.398 85.992 26.882 85.992 26.234C85.992 25.586 85.8 25.082 85.416 24.722C85.032 24.35 84.45 24.164 83.67 24.164H81.402V28.358ZM94.215 24.146V27.818H98.535V29.492H94.215V33.326H99.075V35H92.163V22.472H99.075V24.146H94.215ZM107.165 35.126C106.325 35.126 105.569 34.982 104.897 34.694C104.225 34.394 103.697 33.974 103.313 33.434C102.929 32.894 102.737 32.264 102.737 31.544H104.933C104.981 32.084 105.191 32.528 105.563 32.876C105.947 33.224 106.481 33.398 107.165 33.398C107.873 33.398 108.425 33.23 108.821 32.894C109.217 32.546 109.415 32.102 109.415 31.562C109.415 31.142 109.289 30.8 109.037 30.536C108.797 30.272 108.491 30.068 108.119 29.924C107.759 29.78 107.255 29.624 106.607 29.456C105.791 29.24 105.125 29.024 104.609 28.808C104.105 28.58 103.673 28.232 103.313 27.764C102.953 27.296 102.773 26.672 102.773 25.892C102.773 25.172 102.953 24.542 103.313 24.002C103.673 23.462 104.177 23.048 104.825 22.76C105.473 22.472 106.223 22.328 107.075 22.328C108.287 22.328 109.277 22.634 110.045 23.246C110.825 23.846 111.257 24.674 111.341 25.73H109.073C109.037 25.274 108.821 24.884 108.425 24.56C108.029 24.236 107.507 24.074 106.859 24.074C106.271 24.074 105.791 24.224 105.419 24.524C105.047 24.824 104.861 25.256 104.861 25.82C104.861 26.204 104.975 26.522 105.203 26.774C105.443 27.014 105.743 27.206 106.103 27.35C106.463 27.494 106.955 27.65 107.579 27.818C108.407 28.046 109.079 28.274 109.595 28.502C110.123 28.73 110.567 29.084 110.927 29.564C111.299 30.032 111.485 30.662 111.485 31.454C111.485 32.09 111.311 32.69 110.963 33.254C110.627 33.818 110.129 34.274 109.469 34.622C108.821 34.958 108.053 35.126 107.165 35.126ZM124.094 26.216C124.094 26.852 123.944 27.452 123.644 28.016C123.344 28.58 122.864 29.042 122.204 29.402C121.544 29.75 120.698 29.924 119.666 29.924H117.398V35H115.346V22.49H119.666C120.626 22.49 121.436 22.658 122.096 22.994C122.768 23.318 123.266 23.762 123.59 24.326C123.926 24.89 124.094 25.52 124.094 26.216ZM119.666 28.25C120.446 28.25 121.028 28.076 121.412 27.728C121.796 27.368 121.988 26.864 121.988 26.216C121.988 24.848 121.214 24.164 119.666 24.164H117.398V28.25H119.666ZM133.197 35.126C132.033 35.126 130.959 34.856 129.975 34.316C129.003 33.764 128.229 33.002 127.653 32.03C127.089 31.046 126.807 29.942 126.807 28.718C126.807 27.494 127.089 26.396 127.653 25.424C128.229 24.452 129.003 23.696 129.975 23.156C130.959 22.604 132.033 22.328 133.197 22.328C134.373 22.328 135.447 22.604 136.419 23.156C137.403 23.696 138.177 24.452 138.741 25.424C139.305 26.396 139.587 27.494 139.587 28.718C139.587 29.942 139.305 31.046 138.741 32.03C138.177 33.002 137.403 33.764 136.419 34.316C135.447 34.856 134.373 35.126 133.197 35.126ZM133.197 33.344C134.025 33.344 134.763 33.158 135.411 32.786C136.059 32.402 136.563 31.862 136.923 31.166C137.295 30.458 137.481 29.642 137.481 28.718C137.481 27.794 137.295 26.984 136.923 26.288C136.563 25.592 136.059 25.058 135.411 24.686C134.763 24.314 134.025 24.128 133.197 24.128C132.369 24.128 131.631 24.314 130.983 24.686C130.335 25.058 129.825 25.592 129.453 26.288C129.093 26.984 128.913 27.794 128.913 28.718C128.913 29.642 129.093 30.458 129.453 31.166C129.825 31.862 130.335 32.402 130.983 32.786C131.631 33.158 132.369 33.344 133.197 33.344ZM153.324 35H151.272L145.098 25.658V35H143.046V22.472H145.098L151.272 31.796V22.472H153.324V35ZM161.581 35.126C160.741 35.126 159.985 34.982 159.313 34.694C158.641 34.394 158.113 33.974 157.729 33.434C157.345 32.894 157.153 32.264 157.153 31.544H159.349C159.397 32.084 159.607 32.528 159.979 32.876C160.363 33.224 160.897 33.398 161.581 33.398C162.289 33.398 162.841 33.23 163.237 32.894C163.633 32.546 163.831 32.102 163.831 31.562C163.831 31.142 163.705 30.8 163.453 30.536C163.213 30.272 162.907 30.068 162.535 29.924C162.175 29.78 161.671 29.624 161.023 29.456C160.207 29.24 159.541 29.024 159.025 28.808C158.521 28.58 158.089 28.232 157.729 27.764C157.369 27.296 157.189 26.672 157.189 25.892C157.189 25.172 157.369 24.542 157.729 24.002C158.089 23.462 158.593 23.048 159.241 22.76C159.889 22.472 160.639 22.328 161.491 22.328C162.703 22.328 163.693 22.634 164.461 23.246C165.241 23.846 165.673 24.674 165.757 25.73H163.489C163.453 25.274 163.237 24.884 162.841 24.56C162.445 24.236 161.923 24.074 161.275 24.074C160.687 24.074 160.207 24.224 159.835 24.524C159.463 24.824 159.277 25.256 159.277 25.82C159.277 26.204 159.391 26.522 159.619 26.774C159.859 27.014 160.159 27.206 160.519 27.35C160.879 27.494 161.371 27.65 161.995 27.818C162.823 28.046 163.495 28.274 164.011 28.502C164.539 28.73 164.983 29.084 165.343 29.564C165.715 30.032 165.901 30.662 165.901 31.454C165.901 32.09 165.727 32.69 165.379 33.254C165.043 33.818 164.545 34.274 163.885 34.622C163.237 34.958 162.469 35.126 161.581 35.126ZM171.814 22.49V35H169.762V22.49H171.814ZM186.73 22.49L182.032 35H179.656L174.94 22.49H177.136L180.844 32.894L184.57 22.49H186.73ZM191.938 24.146V27.818H196.258V29.492H191.938V33.326H196.798V35H189.886V22.472H196.798V24.146H191.938ZM210.967 22.49C212.299 22.49 213.463 22.748 214.459 23.264C215.467 23.768 216.241 24.5 216.781 25.46C217.333 26.408 217.609 27.518 217.609 28.79C217.609 30.062 217.333 31.166 216.781 32.102C216.241 33.038 215.467 33.758 214.459 34.262C213.463 34.754 212.299 35 210.967 35H206.881V22.49H210.967ZM210.967 33.326C212.431 33.326 213.553 32.93 214.333 32.138C215.113 31.346 215.503 30.23 215.503 28.79C215.503 27.338 215.113 26.204 214.333 25.388C213.553 24.572 212.431 24.164 210.967 24.164H208.933V33.326H210.967ZM223.135 24.146V27.818H227.455V29.492H223.135V33.326H227.995V35H221.083V22.472H227.995V24.146H223.135ZM236.085 35.126C235.245 35.126 234.489 34.982 233.817 34.694C233.145 34.394 232.617 33.974 232.233 33.434C231.849 32.894 231.657 32.264 231.657 31.544H233.853C233.901 32.084 234.111 32.528 234.483 32.876C234.867 33.224 235.401 33.398 236.085 33.398C236.793 33.398 237.345 33.23 237.741 32.894C238.137 32.546 238.335 32.102 238.335 31.562C238.335 31.142 238.209 30.8 237.957 30.536C237.717 30.272 237.411 30.068 237.039 29.924C236.679 29.78 236.175 29.624 235.527 29.456C234.711 29.24 234.045 29.024 233.529 28.808C233.025 28.58 232.593 28.232 232.233 27.764C231.873 27.296 231.693 26.672 231.693 25.892C231.693 25.172 231.873 24.542 232.233 24.002C232.593 23.462 233.097 23.048 233.745 22.76C234.393 22.472 235.143 22.328 235.995 22.328C237.207 22.328 238.197 22.634 238.965 23.246C239.745 23.846 240.177 24.674 240.261 25.73H237.993C237.957 25.274 237.741 24.884 237.345 24.56C236.949 24.236 236.427 24.074 235.779 24.074C235.191 24.074 234.711 24.224 234.339 24.524C233.967 24.824 233.781 25.256 233.781 25.82C233.781 26.204 233.895 26.522 234.123 26.774C234.363 27.014 234.663 27.206 235.023 27.35C235.383 27.494 235.875 27.65 236.499 27.818C237.327 28.046 237.999 28.274 238.515 28.502C239.043 28.73 239.487 29.084 239.847 29.564C240.219 30.032 240.405 30.662 240.405 31.454C240.405 32.09 240.231 32.69 239.883 33.254C239.547 33.818 239.049 34.274 238.389 34.622C237.741 34.958 236.973 35.126 236.085 35.126ZM246.318 22.49V35H244.266V22.49H246.318ZM259.506 26.09C259.182 25.466 258.732 24.998 258.156 24.686C257.58 24.362 256.914 24.2 256.158 24.2C255.33 24.2 254.592 24.386 253.944 24.758C253.296 25.13 252.786 25.658 252.414 26.342C252.054 27.026 251.874 27.818 251.874 28.718C251.874 29.618 252.054 30.416 252.414 31.112C252.786 31.796 253.296 32.324 253.944 32.696C254.592 33.068 255.33 33.254 256.158 33.254C257.274 33.254 258.18 32.942 258.876 32.318C259.572 31.694 259.998 30.848 260.154 29.78H255.456V28.142H262.35V29.744C262.218 30.716 261.87 31.61 261.306 32.426C260.754 33.242 260.028 33.896 259.128 34.388C258.24 34.868 257.25 35.108 256.158 35.108C254.982 35.108 253.908 34.838 252.936 34.298C251.964 33.746 251.19 32.984 250.614 32.012C250.05 31.04 249.768 29.942 249.768 28.718C249.768 27.494 250.05 26.396 250.614 25.424C251.19 24.452 251.964 23.696 252.936 23.156C253.92 22.604 254.994 22.328 256.158 22.328C257.49 22.328 258.672 22.658 259.704 23.318C260.748 23.966 261.504 24.89 261.972 26.09H259.506ZM276.092 35H274.04L267.866 25.658V35H265.814V22.472H267.866L274.04 31.796V22.472H276.092V35Z" fill="white"/>
<path d="M86.172 52.12C86.184 52.372 86.19 52.708 86.19 53.128C86.19 53.536 86.16 53.998 86.1 54.514C86.028 54.538 85.86 54.55 85.596 54.55C85.536 53.878 85.404 53.404 85.2 53.128C84.996 52.852 84.606 52.714 84.03 52.714H81.15V57.556L83.886 57.43H84.498V58.294H83.886L81.15 58.222V62.182C81.642 62.362 82.248 62.494 82.968 62.578C82.968 62.794 82.95 62.974 82.914 63.118H78.63C78.606 62.938 78.618 62.758 78.666 62.578C79.11 62.518 79.416 62.428 79.584 62.308C79.764 62.188 79.854 61.978 79.854 61.678V52.894C79.542 52.738 79.128 52.648 78.612 52.624C78.612 52.396 78.63 52.228 78.666 52.12H86.172ZM89.5791 61.624C90.0231 62.26 90.6471 62.578 91.4511 62.578C92.2551 62.578 92.8431 62.278 93.2151 61.678C93.5991 61.066 93.7911 60.25 93.7911 59.23C93.7911 58.006 93.5751 57.064 93.1431 56.404C92.7111 55.732 92.0931 55.396 91.2891 55.396C90.4971 55.396 89.9031 55.714 89.5071 56.35C89.1231 56.974 88.9311 57.808 88.9311 58.852C88.9311 60.052 89.1471 60.976 89.5791 61.624ZM91.3971 54.712C92.5491 54.712 93.4671 55.108 94.1511 55.9C94.8471 56.68 95.1951 57.718 95.1951 59.014C95.1951 60.31 94.8411 61.354 94.1331 62.146C93.4251 62.938 92.4831 63.334 91.3071 63.334C90.1431 63.334 89.2251 62.944 88.5531 62.164C87.8811 61.372 87.5451 60.328 87.5451 59.032C87.5451 57.736 87.8991 56.692 88.6071 55.9C89.3151 55.108 90.2451 54.712 91.3971 54.712ZM99.0253 57.07V57.196C99.3133 56.452 99.7453 55.852 100.321 55.396C100.897 54.94 101.515 54.712 102.175 54.712C102.235 54.856 102.265 55.036 102.265 55.252C102.265 55.456 102.223 55.702 102.139 55.99C101.143 55.99 100.327 56.32 99.6913 56.98C99.3313 57.376 99.1093 57.868 99.0253 58.456V62.2C99.5653 62.416 100.195 62.542 100.915 62.578C100.915 62.806 100.891 62.986 100.843 63.118H96.5053C96.4933 62.974 96.4993 62.794 96.5233 62.578C96.9793 62.518 97.2913 62.428 97.4593 62.308C97.6393 62.188 97.7293 61.978 97.7293 61.678V55.972C97.3813 55.96 97.1113 55.954 96.9193 55.954C96.7273 55.954 96.5773 55.954 96.4693 55.954C96.4693 55.81 96.4933 55.654 96.5413 55.486C97.3333 55.174 98.1133 54.952 98.8813 54.82C98.9773 55.432 99.0253 56.182 99.0253 57.07ZM108.971 60.976C108.971 61.42 109.097 61.768 109.349 62.02C109.613 62.26 109.961 62.38 110.393 62.38C111.053 62.38 111.605 62.14 112.049 61.66V58.726L110.771 59.05C109.571 59.374 108.971 60.016 108.971 60.976ZM113.345 63.334C113.033 63.334 112.763 63.25 112.535 63.082C112.307 62.902 112.157 62.656 112.085 62.344C111.485 63.004 110.807 63.334 110.051 63.334C109.307 63.334 108.713 63.124 108.269 62.704C107.825 62.272 107.603 61.72 107.603 61.048C107.603 59.728 108.515 58.87 110.339 58.474L112.049 58.096V57.304C112.049 56.764 111.935 56.368 111.707 56.116C111.491 55.864 111.077 55.738 110.465 55.738C109.853 55.738 109.133 55.882 108.305 56.17L108.071 55.81C108.959 55.078 109.955 54.712 111.059 54.712C111.791 54.712 112.355 54.928 112.751 55.36C113.159 55.792 113.363 56.392 113.363 57.16V61.426C113.363 61.786 113.405 62.038 113.489 62.182C113.573 62.326 113.705 62.398 113.885 62.398C114.077 62.398 114.311 62.368 114.587 62.308L114.695 62.524C114.287 63.064 113.837 63.334 113.345 63.334ZM116.942 61.696V51.418C116.81 51.406 116.642 51.4 116.438 51.4C116.234 51.4 115.982 51.406 115.682 51.418C115.682 51.274 115.706 51.106 115.754 50.914C116.546 50.59 117.374 50.368 118.238 50.248V62.308C118.574 62.452 118.982 62.542 119.462 62.578C119.462 62.794 119.444 62.974 119.408 63.118H115.718C115.694 62.938 115.706 62.758 115.754 62.578C116.198 62.53 116.504 62.446 116.672 62.326C116.852 62.206 116.942 61.996 116.942 61.696ZM121.917 61.696V51.418C121.785 51.406 121.617 51.4 121.413 51.4C121.209 51.4 120.957 51.406 120.657 51.418C120.657 51.274 120.681 51.106 120.729 50.914C121.521 50.59 122.349 50.368 123.213 50.248V62.308C123.549 62.452 123.957 62.542 124.437 62.578C124.437 62.794 124.419 62.974 124.383 63.118H120.693C120.669 62.938 120.681 62.758 120.729 62.578C121.173 62.53 121.479 62.446 121.647 62.326C121.827 62.206 121.917 61.996 121.917 61.696ZM134.757 55.576C132.753 55.576 131.751 56.704 131.751 58.96C131.751 60.136 131.961 61.006 132.381 61.57C132.813 62.122 133.401 62.398 134.145 62.398C134.889 62.398 135.501 62.182 135.981 61.75V55.702C135.633 55.618 135.225 55.576 134.757 55.576ZM137.259 63.334C136.971 63.334 136.713 63.25 136.485 63.082C136.269 62.914 136.119 62.686 136.035 62.398C135.411 63.022 134.637 63.334 133.713 63.334C132.801 63.334 132.021 62.974 131.373 62.254C130.725 61.534 130.401 60.496 130.401 59.14C130.401 57.772 130.857 56.692 131.769 55.9C132.693 55.108 133.827 54.712 135.171 54.712C135.447 54.712 135.717 54.73 135.981 54.766V51.418C135.861 51.406 135.693 51.4 135.477 51.4C135.261 51.4 135.009 51.406 134.721 51.418C134.721 51.214 134.745 51.046 134.793 50.914C135.621 50.59 136.449 50.368 137.277 50.248V61.426C137.277 61.786 137.319 62.038 137.403 62.182C137.487 62.326 137.613 62.398 137.781 62.398C137.961 62.398 138.201 62.368 138.501 62.308L138.627 62.524C138.195 63.064 137.739 63.334 137.259 63.334ZM145.615 57.718C145.603 56.938 145.417 56.362 145.057 55.99C144.697 55.618 144.259 55.432 143.743 55.432C143.239 55.432 142.765 55.636 142.321 56.044C141.877 56.452 141.589 57.064 141.457 57.88L143.545 57.736L145.615 57.718ZM141.367 58.888C141.367 60.004 141.595 60.868 142.051 61.48C142.519 62.08 143.197 62.38 144.085 62.38C144.973 62.38 145.849 62.092 146.713 61.516L146.875 61.84C145.999 62.836 144.925 63.334 143.653 63.334C142.753 63.334 141.937 63.004 141.205 62.344C140.833 62.008 140.533 61.57 140.305 61.03C140.089 60.478 139.981 59.86 139.981 59.176C139.981 57.772 140.389 56.68 141.205 55.9C142.021 55.108 142.897 54.712 143.833 54.712C144.769 54.712 145.525 55.012 146.101 55.612C146.689 56.2 146.983 57.046 146.983 58.15C146.911 58.282 146.845 58.39 146.785 58.474H141.385C141.373 58.558 141.367 58.696 141.367 58.888ZM147.625 55.468C147.601 55.324 147.589 55.21 147.589 55.126C147.589 55.042 147.589 54.976 147.589 54.928H151.315C151.351 55.036 151.369 55.216 151.369 55.468C150.805 55.516 150.385 55.612 150.109 55.756L152.431 62.272C152.479 62.032 152.563 61.738 152.683 61.39L154.483 56.584C154.579 56.404 154.627 56.254 154.627 56.134C154.627 56.002 154.597 55.9 154.537 55.828C154.393 55.636 154.015 55.516 153.403 55.468C153.331 55.312 153.307 55.132 153.331 54.928H156.877C156.889 55.048 156.859 55.228 156.787 55.468C156.427 55.504 156.055 55.594 155.671 55.738L152.719 63.226H151.693L148.957 56.458C148.813 56.11 148.657 55.87 148.489 55.738C148.321 55.606 148.033 55.516 147.625 55.468ZM159.758 52.912C159.578 53.104 159.356 53.2 159.092 53.2C158.828 53.2 158.6 53.104 158.408 52.912C158.216 52.72 158.12 52.492 158.12 52.228C158.12 51.964 158.216 51.736 158.408 51.544C158.6 51.352 158.828 51.256 159.092 51.256C159.356 51.256 159.578 51.352 159.758 51.544C159.95 51.724 160.046 51.952 160.046 52.228C160.046 52.492 159.95 52.72 159.758 52.912ZM158.462 61.696V55.99C158.27 55.978 158.066 55.972 157.85 55.972C157.646 55.972 157.43 55.978 157.202 55.99C157.202 55.87 157.226 55.702 157.274 55.486C158.114 55.174 158.942 54.952 159.758 54.82V62.308C160.094 62.452 160.502 62.542 160.982 62.578C160.982 62.794 160.964 62.974 160.928 63.118H157.238C157.214 62.938 157.226 62.758 157.274 62.578C157.718 62.53 158.024 62.446 158.192 62.326C158.372 62.206 158.462 61.996 158.462 61.696ZM169.178 62.02C168.242 62.896 167.234 63.334 166.154 63.334C165.086 63.334 164.192 62.956 163.472 62.2C162.764 61.432 162.41 60.406 162.41 59.122C162.41 57.826 162.8 56.77 163.58 55.954C164.36 55.126 165.362 54.712 166.586 54.712C167.546 54.712 168.356 54.946 169.016 55.414C169.016 56.038 168.962 56.686 168.854 57.358L168.476 57.304C168.476 56.728 168.29 56.278 167.918 55.954C167.546 55.618 167.066 55.45 166.478 55.45C165.674 55.45 165.026 55.774 164.534 56.422C164.054 57.058 163.814 57.916 163.814 58.996C163.814 60.076 164.048 60.928 164.516 61.552C164.996 62.176 165.638 62.488 166.442 62.488C167.246 62.488 168.08 62.236 168.944 61.732L169.178 62.02ZM176.201 57.718C176.189 56.938 176.003 56.362 175.643 55.99C175.283 55.618 174.845 55.432 174.329 55.432C173.825 55.432 173.351 55.636 172.907 56.044C172.463 56.452 172.175 57.064 172.043 57.88L174.131 57.736L176.201 57.718ZM171.953 58.888C171.953 60.004 172.181 60.868 172.637 61.48C173.105 62.08 173.783 62.38 174.671 62.38C175.559 62.38 176.435 62.092 177.299 61.516L177.461 61.84C176.585 62.836 175.511 63.334 174.239 63.334C173.339 63.334 172.523 63.004 171.791 62.344C171.419 62.008 171.119 61.57 170.891 61.03C170.675 60.478 170.567 59.86 170.567 59.176C170.567 57.772 170.975 56.68 171.791 55.9C172.607 55.108 173.483 54.712 174.419 54.712C175.355 54.712 176.111 55.012 176.687 55.612C177.275 56.2 177.569 57.046 177.569 58.15C177.497 58.282 177.431 58.39 177.371 58.474H171.971C171.959 58.558 171.953 58.696 171.953 58.888ZM181.793 62.65C182.393 62.65 182.867 62.524 183.215 62.272C183.563 62.008 183.737 61.69 183.737 61.318C183.737 60.946 183.593 60.634 183.305 60.382C183.017 60.13 182.663 59.908 182.243 59.716C181.823 59.524 181.403 59.326 180.983 59.122C180.575 58.906 180.227 58.624 179.939 58.276C179.651 57.916 179.507 57.496 179.507 57.016C179.507 56.26 179.777 55.69 180.317 55.306C180.857 54.91 181.505 54.712 182.261 54.712C183.029 54.712 183.761 54.832 184.457 55.072C184.469 55.276 184.475 55.552 184.475 55.9C184.475 56.248 184.439 56.65 184.367 57.106C184.271 57.106 184.133 57.088 183.953 57.052C183.965 56.932 183.971 56.818 183.971 56.71C183.971 55.81 183.425 55.36 182.333 55.36C181.853 55.36 181.457 55.492 181.145 55.756C180.845 56.008 180.695 56.326 180.695 56.71C180.695 57.082 180.839 57.4 181.127 57.664C181.427 57.928 181.787 58.15 182.207 58.33C182.639 58.51 183.065 58.702 183.485 58.906C183.917 59.11 184.277 59.386 184.565 59.734C184.865 60.07 185.015 60.466 185.015 60.922C185.015 61.678 184.703 62.272 184.079 62.704C183.467 63.124 182.711 63.334 181.811 63.334C180.911 63.334 180.071 63.208 179.291 62.956C179.267 62.68 179.255 62.362 179.255 62.002C179.255 61.63 179.291 61.222 179.363 60.778C179.471 60.778 179.609 60.79 179.777 60.814C179.777 60.886 179.777 60.958 179.777 61.03C179.777 61.594 179.963 62.008 180.335 62.272C180.719 62.524 181.205 62.65 181.793 62.65Z" fill="white"/>
<path d="M53.5 24H18.5C17.837 24 17.2011 24.2634 16.7322 24.7322C16.2634 25.2011 16 25.837 16 26.5V53.1667C16 53.8297 16.2634 54.4656 16.7322 54.9344C17.2011 55.4033 17.837 55.6667 18.5 55.6667H29.3333V59.2333L27.4 59.875C27.2345 59.9309 27.0907 60.0374 26.989 60.1795C26.8873 60.3215 26.8329 60.492 26.8333 60.6667V62.3333H25.1667V64H39.3333V62.3333H28.5V61.2667L30.3 60.6667H39.3333V59H31V55.6667H39.3333V54H18.5C18.279 54 18.067 53.9122 17.9107 53.7559C17.7545 53.5996 17.6667 53.3877 17.6667 53.1667V48.1667H39.3333V46.5H17.6667V26.5C17.6667 26.279 17.7545 26.067 17.9107 25.9107C18.067 25.7545 18.279 25.6667 18.5 25.6667H53.5C53.721 25.6667 53.933 25.7545 54.0893 25.9107C54.2455 26.067 54.3333 26.279 54.3333 26.5V39H56V26.5C56 25.837 55.7366 25.2011 55.2678 24.7322C54.7989 24.2634 54.163 24 53.5 24Z" fill="white" stroke="white"/>
<path d="M54.3333 40.6667H42.6667C42.2246 40.6667 41.8007 40.8423 41.4882 41.1549C41.1756 41.4675 41 41.8914 41 42.3334V62.3334C41 62.7754 41.1756 63.1994 41.4882 63.5119C41.8007 63.8245 42.2246 64.0001 42.6667 64.0001H54.3333C54.7754 64.0001 55.1993 63.8245 55.5118 63.5119C55.8244 63.1994 56 62.7754 56 62.3334V42.3334C56 41.8914 55.8244 41.4675 55.5118 41.1549C55.1993 40.8423 54.7754 40.6667 54.3333 40.6667ZM54.3333 62.3334H42.6667V59.8334H54.3333V62.3334ZM54.3333 58.1667H42.6667V46.5001H54.3333V58.1667ZM54.3333 44.8334H42.6667V42.3334H54.3333V44.8334Z" fill="white" stroke="white"/>
</svg>
